M48
METRIC
T1C0.300
T2C0.800
T3C0.950
T4C1.000
T5C1.016
T6C1.100
T7C1.600
T8C2.000
T9C1.200
T10C3.200
T11C3.302
%
G90
G05
T1
X122.2Y-92.5
X122.6Y-103.2
X124.2Y-102.6
X124.7Y-91.8
X125.1Y-83.3
X125.3Y-90.1
X125.9Y-84.5
X126.2Y-91.7
X130.5Y-98.4
X132.1Y-97.7
X132.2Y-91.3
X133.4Y-90.0
X133.651Y-92.249
X138.2Y-102.2
X142.4Y-96.1
X142.9Y-97.3
X145.2Y-86.2
X145.2Y-91.9
X154.0Y-84.9
X156.2Y-86.1
X157.6Y-80.6
X165.0Y-86.2
T2
X103.8Y-71.0
X103.8Y-76.0
X109.3Y-106.8
X109.3Y-111.8
X109.3Y-114.1
X109.3Y-119.1
X110.5Y-82.7
X110.5Y-87.7
X116.0Y-80.94
X116.0Y-91.1
X117.8Y-47.053
X117.8Y-50.553
X119.165Y-80.94
X119.165Y-91.1
X121.6Y-71.0
X121.6Y-76.0
X125.5Y-71.0
X125.5Y-76.0
X127.0Y-106.8
X127.0Y-111.8
X127.0Y-114.1
X127.0Y-119.1
X144.8Y-106.8
X144.8Y-111.8
X144.8Y-114.1
X144.8Y-119.1
X145.9Y-71.1
X145.9Y-76.1
X150.725Y-98.1
X150.725Y-103.1
X155.8Y-65.504
X155.8Y-68.004
X160.8Y-51.1
X160.8Y-56.1
X162.5Y-106.8
X162.5Y-111.8
X162.5Y-114.1
X162.5Y-119.1
X164.4Y-58.4
X165.8Y-51.896
X165.8Y-54.396
X166.6Y-81.62
X166.6Y-91.78
X169.4Y-58.4
X169.7Y-81.62
X169.7Y-91.78
X169.8Y-96.5
X169.8Y-101.5
T3
X101.675Y-100.575
X104.175Y-100.575
X104.4Y-109.05
X104.4Y-111.55
X104.4Y-114.05
X104.4Y-116.55
X106.675Y-100.575
X109.1Y-74.2
X109.175Y-100.575
X111.6Y-74.2
X111.675Y-100.575
X114.1Y-74.2
X114.175Y-100.575
X115.2Y-109.05
X115.2Y-111.55
X115.2Y-114.05
X115.2Y-116.55
X116.6Y-74.2
X116.675Y-100.575
X119.175Y-100.575
X122.1Y-109.05
X122.1Y-111.55
X122.1Y-114.05
X122.1Y-116.55
X126.8Y-100.5
X129.3Y-100.5
X131.5Y-69.1
X131.5Y-71.6
X131.5Y-74.1
X131.8Y-100.5
X132.9Y-109.05
X132.9Y-111.55
X132.9Y-114.05
X132.9Y-116.55
X134.3Y-100.5
X136.8Y-100.5
X139.3Y-100.5
X139.8Y-69.1
X139.8Y-71.6
X139.8Y-74.1
X139.9Y-109.05
X139.9Y-111.55
X139.9Y-114.05
X139.9Y-116.55
X141.8Y-100.5
X144.3Y-100.5
X150.7Y-109.05
X150.7Y-111.55
X150.7Y-114.05
X150.7Y-116.55
X151.4Y-73.7
X153.9Y-73.7
X155.795Y-100.25
X156.4Y-73.7
X157.6Y-109.05
X157.6Y-111.55
X157.6Y-114.05
X157.6Y-116.55
X158.295Y-100.25
X158.9Y-73.7
X160.795Y-100.25
X161.4Y-73.7
X163.295Y-100.25
X163.9Y-73.7
X166.4Y-73.7
X168.4Y-109.05
X168.4Y-111.55
X168.4Y-114.05
X168.4Y-116.55
T4
X102.2Y-62.0
X102.2Y-64.5
X115.56Y-55.5
X120.64Y-55.51
X160.2Y-63.3
X162.74Y-63.3
X165.28Y-63.3
X169.475Y-42.9
X169.475Y-45.4
X174.9Y-116.8
X175.25Y-105.5
X177.4Y-116.8
X177.75Y-105.5
X177.775Y-42.9
X177.775Y-45.4
X183.6Y-116.8
X184.4Y-105.5
X186.075Y-42.875
X186.075Y-45.375
X186.1Y-116.8
X186.9Y-105.5
X192.3Y-116.8
X193.5Y-105.5
X194.375Y-42.9
X194.375Y-45.4
X194.8Y-116.8
X196.0Y-105.5
X201.0Y-116.8
X202.475Y-43.0
X202.475Y-45.5
X202.5Y-105.5
X203.5Y-116.8
X205.0Y-52.8
X205.0Y-105.5
X205.05Y-61.075
X205.1Y-69.3
X207.5Y-52.8
X207.55Y-61.075
X207.6Y-69.3
T5
X174.8Y-80.87
X174.8Y-83.41
X174.8Y-85.95
X174.8Y-88.49
X174.8Y-91.03
X174.8Y-93.57
X179.88Y-77.06
X179.88Y-79.6
X179.88Y-94.84
X179.88Y-97.38
X182.42Y-77.06
X182.42Y-79.6
X182.42Y-94.84
X182.42Y-97.38
X184.96Y-77.06
X184.96Y-79.6
X184.96Y-94.84
X184.96Y-97.38
X187.5Y-77.06
X187.5Y-79.6
X187.5Y-94.84
X187.5Y-97.38
X190.04Y-77.06
X190.04Y-79.6
X190.04Y-94.84
X190.04Y-97.38
X192.58Y-77.06
X192.58Y-79.6
X192.58Y-94.84
X192.58Y-97.38
X195.12Y-77.06
X195.12Y-79.6
X195.12Y-94.84
X195.12Y-97.38
X197.66Y-77.06
X197.66Y-79.6
X197.66Y-94.84
X197.66Y-97.38
X200.2Y-77.06
X200.2Y-79.6
X200.2Y-94.84
X200.2Y-97.38
X202.74Y-77.06
X202.74Y-79.6
X202.74Y-94.84
X202.74Y-97.38
X207.82Y-80.87
X207.82Y-83.41
X207.82Y-85.95
X207.82Y-88.49
X207.82Y-91.03
X207.82Y-93.57
T6
X103.205Y-78.56
X103.205Y-93.8
X105.745Y-78.56
X105.745Y-93.8
X106.792Y-59.45
X106.792Y-66.95
X108.285Y-78.56
X108.285Y-93.8
X110.825Y-78.56
X110.825Y-93.8
X113.365Y-78.56
X113.365Y-93.8
X115.905Y-78.56
X115.905Y-93.8
X118.445Y-78.56
X118.445Y-93.8
X120.985Y-78.56
X120.985Y-93.8
X121.042Y-59.45
X121.042Y-66.95
X123.525Y-78.56
X123.525Y-93.8
X126.065Y-78.56
X126.065Y-93.8
X126.3Y-46.7
X126.3Y-49.24
X126.3Y-60.232
X126.3Y-62.772
X128.605Y-78.56
X128.605Y-93.8
X131.145Y-78.56
X131.145Y-93.8
X133.685Y-78.56
X133.685Y-93.8
X136.225Y-78.56
X136.225Y-93.8
X138.765Y-78.56
X138.765Y-93.8
X141.305Y-78.56
X141.305Y-93.8
X143.845Y-78.56
X143.845Y-93.8
X146.385Y-78.56
X146.385Y-93.8
X148.925Y-78.56
X148.925Y-93.8
X149.668Y-46.7
X149.668Y-49.24
X149.668Y-60.232
X149.668Y-62.772
X151.465Y-78.56
X151.465Y-93.8
X154.005Y-78.56
X154.005Y-93.8
X155.3Y-53.6
X155.3Y-56.14
X155.3Y-58.68
X156.545Y-78.56
X156.545Y-93.8
X159.085Y-78.56
X159.085Y-93.8
X161.625Y-78.56
X161.625Y-93.8
X179.45Y-51.44
X179.45Y-71.76
X181.99Y-51.44
X181.99Y-71.76
X184.53Y-51.44
X184.53Y-71.76
X187.07Y-51.44
X187.07Y-71.76
X189.61Y-51.44
X189.61Y-71.76
X192.15Y-51.44
X192.15Y-71.76
X194.69Y-51.44
X194.69Y-71.76
X197.23Y-51.44
X197.23Y-71.76
X199.77Y-51.44
X199.77Y-71.76
T7
X98.8Y-51.4
X111.5Y-51.4
T8
X107.7Y-43.2
X113.4Y-43.3
X148.1Y-67.8
X174.7Y-56.4
T9
X100.2Y-60.4
T10
X96.9Y-41.92
X96.9Y-118.92
X180.72Y-61.6
X198.5Y-61.6
X209.9Y-41.92
X209.9Y-118.92
T11
X175.943Y-76.933
X175.943Y-97.507
X206.677Y-76.933
X206.677Y-97.507
M30
