%TF.GenerationSoftware,KiCad,Pcbnew,9.0.6*%
%TF.CreationDate,2026-01-04T18:25:18-08:00*%
%TF.ProjectId,2025_Animation_Controller,32303235-5f41-46e6-996d-6174696f6e5f,rev?*%
%TF.SameCoordinates,Original*%
%TF.FileFunction,Legend,Bot*%
%TF.FilePolarity,Positive*%
%FSLAX46Y46*%
G04 Gerber Fmt 4.6, Leading zero omitted, Abs format (unit mm)*
G04 Created by KiCad (PCBNEW 9.0.6) date 2026-01-04 18:25:18*
%MOMM*%
%LPD*%
G01*
G04 APERTURE LIST*
%ADD10C,0.100000*%
%ADD11C,0.150000*%
%ADD12C,0.120000*%
G04 APERTURE END LIST*
D10*
X193889523Y-80709219D02*
X193556190Y-81709219D01*
X193556190Y-81709219D02*
X193222857Y-80709219D01*
X192318095Y-81613980D02*
X192365714Y-81661600D01*
X192365714Y-81661600D02*
X192508571Y-81709219D01*
X192508571Y-81709219D02*
X192603809Y-81709219D01*
X192603809Y-81709219D02*
X192746666Y-81661600D01*
X192746666Y-81661600D02*
X192841904Y-81566361D01*
X192841904Y-81566361D02*
X192889523Y-81471123D01*
X192889523Y-81471123D02*
X192937142Y-81280647D01*
X192937142Y-81280647D02*
X192937142Y-81137790D01*
X192937142Y-81137790D02*
X192889523Y-80947314D01*
X192889523Y-80947314D02*
X192841904Y-80852076D01*
X192841904Y-80852076D02*
X192746666Y-80756838D01*
X192746666Y-80756838D02*
X192603809Y-80709219D01*
X192603809Y-80709219D02*
X192508571Y-80709219D01*
X192508571Y-80709219D02*
X192365714Y-80756838D01*
X192365714Y-80756838D02*
X192318095Y-80804457D01*
X191937142Y-80804457D02*
X191889523Y-80756838D01*
X191889523Y-80756838D02*
X191794285Y-80709219D01*
X191794285Y-80709219D02*
X191556190Y-80709219D01*
X191556190Y-80709219D02*
X191460952Y-80756838D01*
X191460952Y-80756838D02*
X191413333Y-80804457D01*
X191413333Y-80804457D02*
X191365714Y-80899695D01*
X191365714Y-80899695D02*
X191365714Y-80994933D01*
X191365714Y-80994933D02*
X191413333Y-81137790D01*
X191413333Y-81137790D02*
X191984761Y-81709219D01*
X191984761Y-81709219D02*
X191365714Y-81709219D01*
X200390475Y-81709219D02*
X200199999Y-81709219D01*
X200199999Y-81709219D02*
X200104761Y-81661600D01*
X200104761Y-81661600D02*
X200057142Y-81613980D01*
X200057142Y-81613980D02*
X199961904Y-81471123D01*
X199961904Y-81471123D02*
X199914285Y-81280647D01*
X199914285Y-81280647D02*
X199914285Y-80899695D01*
X199914285Y-80899695D02*
X199961904Y-80804457D01*
X199961904Y-80804457D02*
X200009523Y-80756838D01*
X200009523Y-80756838D02*
X200104761Y-80709219D01*
X200104761Y-80709219D02*
X200295237Y-80709219D01*
X200295237Y-80709219D02*
X200390475Y-80756838D01*
X200390475Y-80756838D02*
X200438094Y-80804457D01*
X200438094Y-80804457D02*
X200485713Y-80899695D01*
X200485713Y-80899695D02*
X200485713Y-81137790D01*
X200485713Y-81137790D02*
X200438094Y-81233028D01*
X200438094Y-81233028D02*
X200390475Y-81280647D01*
X200390475Y-81280647D02*
X200295237Y-81328266D01*
X200295237Y-81328266D02*
X200104761Y-81328266D01*
X200104761Y-81328266D02*
X200009523Y-81280647D01*
X200009523Y-81280647D02*
X199961904Y-81233028D01*
X199961904Y-81233028D02*
X199914285Y-81137790D01*
X202835237Y-81137790D02*
X202930475Y-81090171D01*
X202930475Y-81090171D02*
X202978094Y-81042552D01*
X202978094Y-81042552D02*
X203025713Y-80947314D01*
X203025713Y-80947314D02*
X203025713Y-80899695D01*
X203025713Y-80899695D02*
X202978094Y-80804457D01*
X202978094Y-80804457D02*
X202930475Y-80756838D01*
X202930475Y-80756838D02*
X202835237Y-80709219D01*
X202835237Y-80709219D02*
X202644761Y-80709219D01*
X202644761Y-80709219D02*
X202549523Y-80756838D01*
X202549523Y-80756838D02*
X202501904Y-80804457D01*
X202501904Y-80804457D02*
X202454285Y-80899695D01*
X202454285Y-80899695D02*
X202454285Y-80947314D01*
X202454285Y-80947314D02*
X202501904Y-81042552D01*
X202501904Y-81042552D02*
X202549523Y-81090171D01*
X202549523Y-81090171D02*
X202644761Y-81137790D01*
X202644761Y-81137790D02*
X202835237Y-81137790D01*
X202835237Y-81137790D02*
X202930475Y-81185409D01*
X202930475Y-81185409D02*
X202978094Y-81233028D01*
X202978094Y-81233028D02*
X203025713Y-81328266D01*
X203025713Y-81328266D02*
X203025713Y-81518742D01*
X203025713Y-81518742D02*
X202978094Y-81613980D01*
X202978094Y-81613980D02*
X202930475Y-81661600D01*
X202930475Y-81661600D02*
X202835237Y-81709219D01*
X202835237Y-81709219D02*
X202644761Y-81709219D01*
X202644761Y-81709219D02*
X202549523Y-81661600D01*
X202549523Y-81661600D02*
X202501904Y-81613980D01*
X202501904Y-81613980D02*
X202454285Y-81518742D01*
X202454285Y-81518742D02*
X202454285Y-81328266D01*
X202454285Y-81328266D02*
X202501904Y-81233028D01*
X202501904Y-81233028D02*
X202549523Y-81185409D01*
X202549523Y-81185409D02*
X202644761Y-81137790D01*
X206039734Y-83819800D02*
X205896877Y-83867419D01*
X205896877Y-83867419D02*
X205658782Y-83867419D01*
X205658782Y-83867419D02*
X205563544Y-83819800D01*
X205563544Y-83819800D02*
X205515925Y-83772180D01*
X205515925Y-83772180D02*
X205468306Y-83676942D01*
X205468306Y-83676942D02*
X205468306Y-83581704D01*
X205468306Y-83581704D02*
X205515925Y-83486466D01*
X205515925Y-83486466D02*
X205563544Y-83438847D01*
X205563544Y-83438847D02*
X205658782Y-83391228D01*
X205658782Y-83391228D02*
X205849258Y-83343609D01*
X205849258Y-83343609D02*
X205944496Y-83295990D01*
X205944496Y-83295990D02*
X205992115Y-83248371D01*
X205992115Y-83248371D02*
X206039734Y-83153133D01*
X206039734Y-83153133D02*
X206039734Y-83057895D01*
X206039734Y-83057895D02*
X205992115Y-82962657D01*
X205992115Y-82962657D02*
X205944496Y-82915038D01*
X205944496Y-82915038D02*
X205849258Y-82867419D01*
X205849258Y-82867419D02*
X205611163Y-82867419D01*
X205611163Y-82867419D02*
X205468306Y-82915038D01*
X205039734Y-83867419D02*
X205039734Y-82867419D01*
X205039734Y-82867419D02*
X204801639Y-82867419D01*
X204801639Y-82867419D02*
X204658782Y-82915038D01*
X204658782Y-82915038D02*
X204563544Y-83010276D01*
X204563544Y-83010276D02*
X204515925Y-83105514D01*
X204515925Y-83105514D02*
X204468306Y-83295990D01*
X204468306Y-83295990D02*
X204468306Y-83438847D01*
X204468306Y-83438847D02*
X204515925Y-83629323D01*
X204515925Y-83629323D02*
X204563544Y-83724561D01*
X204563544Y-83724561D02*
X204658782Y-83819800D01*
X204658782Y-83819800D02*
X204801639Y-83867419D01*
X204801639Y-83867419D02*
X205039734Y-83867419D01*
X204087353Y-83581704D02*
X203611163Y-83581704D01*
X204182591Y-83867419D02*
X203849258Y-82867419D01*
X203849258Y-82867419D02*
X203515925Y-83867419D01*
X187690476Y-81709219D02*
X188261904Y-81709219D01*
X187976190Y-81709219D02*
X187976190Y-80709219D01*
X187976190Y-80709219D02*
X188071428Y-80852076D01*
X188071428Y-80852076D02*
X188166666Y-80947314D01*
X188166666Y-80947314D02*
X188261904Y-80994933D01*
X187357142Y-80709219D02*
X186738095Y-80709219D01*
X186738095Y-80709219D02*
X187071428Y-81090171D01*
X187071428Y-81090171D02*
X186928571Y-81090171D01*
X186928571Y-81090171D02*
X186833333Y-81137790D01*
X186833333Y-81137790D02*
X186785714Y-81185409D01*
X186785714Y-81185409D02*
X186738095Y-81280647D01*
X186738095Y-81280647D02*
X186738095Y-81518742D01*
X186738095Y-81518742D02*
X186785714Y-81613980D01*
X186785714Y-81613980D02*
X186833333Y-81661600D01*
X186833333Y-81661600D02*
X186928571Y-81709219D01*
X186928571Y-81709219D02*
X187214285Y-81709219D01*
X187214285Y-81709219D02*
X187309523Y-81661600D01*
X187309523Y-81661600D02*
X187357142Y-81613980D01*
X203073332Y-92645619D02*
X202406666Y-92645619D01*
X202406666Y-92645619D02*
X202835237Y-93645619D01*
X187785713Y-92740857D02*
X187738094Y-92693238D01*
X187738094Y-92693238D02*
X187642856Y-92645619D01*
X187642856Y-92645619D02*
X187404761Y-92645619D01*
X187404761Y-92645619D02*
X187309523Y-92693238D01*
X187309523Y-92693238D02*
X187261904Y-92740857D01*
X187261904Y-92740857D02*
X187214285Y-92836095D01*
X187214285Y-92836095D02*
X187214285Y-92931333D01*
X187214285Y-92931333D02*
X187261904Y-93074190D01*
X187261904Y-93074190D02*
X187833332Y-93645619D01*
X187833332Y-93645619D02*
X187214285Y-93645619D01*
X178421503Y-87995038D02*
X178516741Y-87947419D01*
X178516741Y-87947419D02*
X178659598Y-87947419D01*
X178659598Y-87947419D02*
X178802455Y-87995038D01*
X178802455Y-87995038D02*
X178897693Y-88090276D01*
X178897693Y-88090276D02*
X178945312Y-88185514D01*
X178945312Y-88185514D02*
X178992931Y-88375990D01*
X178992931Y-88375990D02*
X178992931Y-88518847D01*
X178992931Y-88518847D02*
X178945312Y-88709323D01*
X178945312Y-88709323D02*
X178897693Y-88804561D01*
X178897693Y-88804561D02*
X178802455Y-88899800D01*
X178802455Y-88899800D02*
X178659598Y-88947419D01*
X178659598Y-88947419D02*
X178564360Y-88947419D01*
X178564360Y-88947419D02*
X178421503Y-88899800D01*
X178421503Y-88899800D02*
X178373884Y-88852180D01*
X178373884Y-88852180D02*
X178373884Y-88518847D01*
X178373884Y-88518847D02*
X178564360Y-88518847D01*
X177945312Y-88947419D02*
X177945312Y-87947419D01*
X177945312Y-87947419D02*
X177373884Y-88947419D01*
X177373884Y-88947419D02*
X177373884Y-87947419D01*
X176897693Y-88947419D02*
X176897693Y-87947419D01*
X176897693Y-87947419D02*
X176659598Y-87947419D01*
X176659598Y-87947419D02*
X176516741Y-87995038D01*
X176516741Y-87995038D02*
X176421503Y-88090276D01*
X176421503Y-88090276D02*
X176373884Y-88185514D01*
X176373884Y-88185514D02*
X176326265Y-88375990D01*
X176326265Y-88375990D02*
X176326265Y-88518847D01*
X176326265Y-88518847D02*
X176373884Y-88709323D01*
X176373884Y-88709323D02*
X176421503Y-88804561D01*
X176421503Y-88804561D02*
X176516741Y-88899800D01*
X176516741Y-88899800D02*
X176659598Y-88947419D01*
X176659598Y-88947419D02*
X176897693Y-88947419D01*
X206039734Y-81279800D02*
X205896877Y-81327419D01*
X205896877Y-81327419D02*
X205658782Y-81327419D01*
X205658782Y-81327419D02*
X205563544Y-81279800D01*
X205563544Y-81279800D02*
X205515925Y-81232180D01*
X205515925Y-81232180D02*
X205468306Y-81136942D01*
X205468306Y-81136942D02*
X205468306Y-81041704D01*
X205468306Y-81041704D02*
X205515925Y-80946466D01*
X205515925Y-80946466D02*
X205563544Y-80898847D01*
X205563544Y-80898847D02*
X205658782Y-80851228D01*
X205658782Y-80851228D02*
X205849258Y-80803609D01*
X205849258Y-80803609D02*
X205944496Y-80755990D01*
X205944496Y-80755990D02*
X205992115Y-80708371D01*
X205992115Y-80708371D02*
X206039734Y-80613133D01*
X206039734Y-80613133D02*
X206039734Y-80517895D01*
X206039734Y-80517895D02*
X205992115Y-80422657D01*
X205992115Y-80422657D02*
X205944496Y-80375038D01*
X205944496Y-80375038D02*
X205849258Y-80327419D01*
X205849258Y-80327419D02*
X205611163Y-80327419D01*
X205611163Y-80327419D02*
X205468306Y-80375038D01*
X204468306Y-81232180D02*
X204515925Y-81279800D01*
X204515925Y-81279800D02*
X204658782Y-81327419D01*
X204658782Y-81327419D02*
X204754020Y-81327419D01*
X204754020Y-81327419D02*
X204896877Y-81279800D01*
X204896877Y-81279800D02*
X204992115Y-81184561D01*
X204992115Y-81184561D02*
X205039734Y-81089323D01*
X205039734Y-81089323D02*
X205087353Y-80898847D01*
X205087353Y-80898847D02*
X205087353Y-80755990D01*
X205087353Y-80755990D02*
X205039734Y-80565514D01*
X205039734Y-80565514D02*
X204992115Y-80470276D01*
X204992115Y-80470276D02*
X204896877Y-80375038D01*
X204896877Y-80375038D02*
X204754020Y-80327419D01*
X204754020Y-80327419D02*
X204658782Y-80327419D01*
X204658782Y-80327419D02*
X204515925Y-80375038D01*
X204515925Y-80375038D02*
X204468306Y-80422657D01*
X203563544Y-81327419D02*
X204039734Y-81327419D01*
X204039734Y-81327419D02*
X204039734Y-80327419D01*
X177796738Y-77631595D02*
X177749119Y-77536357D01*
X177749119Y-77536357D02*
X177749119Y-77393500D01*
X177749119Y-77393500D02*
X177796738Y-77250643D01*
X177796738Y-77250643D02*
X177891976Y-77155405D01*
X177891976Y-77155405D02*
X177987214Y-77107786D01*
X177987214Y-77107786D02*
X178177690Y-77060167D01*
X178177690Y-77060167D02*
X178320547Y-77060167D01*
X178320547Y-77060167D02*
X178511023Y-77107786D01*
X178511023Y-77107786D02*
X178606261Y-77155405D01*
X178606261Y-77155405D02*
X178701500Y-77250643D01*
X178701500Y-77250643D02*
X178749119Y-77393500D01*
X178749119Y-77393500D02*
X178749119Y-77488738D01*
X178749119Y-77488738D02*
X178701500Y-77631595D01*
X178701500Y-77631595D02*
X178653880Y-77679214D01*
X178653880Y-77679214D02*
X178320547Y-77679214D01*
X178320547Y-77679214D02*
X178320547Y-77488738D01*
X178749119Y-78107786D02*
X177749119Y-78107786D01*
X177749119Y-78107786D02*
X178749119Y-78679214D01*
X178749119Y-78679214D02*
X177749119Y-78679214D01*
X178749119Y-79155405D02*
X177749119Y-79155405D01*
X177749119Y-79155405D02*
X177749119Y-79393500D01*
X177749119Y-79393500D02*
X177796738Y-79536357D01*
X177796738Y-79536357D02*
X177891976Y-79631595D01*
X177891976Y-79631595D02*
X177987214Y-79679214D01*
X177987214Y-79679214D02*
X178177690Y-79726833D01*
X178177690Y-79726833D02*
X178320547Y-79726833D01*
X178320547Y-79726833D02*
X178511023Y-79679214D01*
X178511023Y-79679214D02*
X178606261Y-79631595D01*
X178606261Y-79631595D02*
X178701500Y-79536357D01*
X178701500Y-79536357D02*
X178749119Y-79393500D01*
X178749119Y-79393500D02*
X178749119Y-79155405D01*
X179040550Y-93646466D02*
X178992931Y-93598847D01*
X178992931Y-93598847D02*
X178897693Y-93551228D01*
X178897693Y-93551228D02*
X178707217Y-93646466D01*
X178707217Y-93646466D02*
X178611979Y-93598847D01*
X178611979Y-93598847D02*
X178564360Y-93551228D01*
X178183407Y-94027419D02*
X178183407Y-93027419D01*
X177707217Y-94027419D02*
X177707217Y-93027419D01*
X177707217Y-93027419D02*
X177135789Y-94027419D01*
X177135789Y-94027419D02*
X177135789Y-93027419D01*
X176802455Y-93027419D02*
X176231027Y-93027419D01*
X176516741Y-94027419D02*
X176516741Y-93027419D01*
X197850476Y-81709219D02*
X198421904Y-81709219D01*
X198136190Y-81709219D02*
X198136190Y-80709219D01*
X198136190Y-80709219D02*
X198231428Y-80852076D01*
X198231428Y-80852076D02*
X198326666Y-80947314D01*
X198326666Y-80947314D02*
X198421904Y-80994933D01*
X197231428Y-80709219D02*
X197136190Y-80709219D01*
X197136190Y-80709219D02*
X197040952Y-80756838D01*
X197040952Y-80756838D02*
X196993333Y-80804457D01*
X196993333Y-80804457D02*
X196945714Y-80899695D01*
X196945714Y-80899695D02*
X196898095Y-81090171D01*
X196898095Y-81090171D02*
X196898095Y-81328266D01*
X196898095Y-81328266D02*
X196945714Y-81518742D01*
X196945714Y-81518742D02*
X196993333Y-81613980D01*
X196993333Y-81613980D02*
X197040952Y-81661600D01*
X197040952Y-81661600D02*
X197136190Y-81709219D01*
X197136190Y-81709219D02*
X197231428Y-81709219D01*
X197231428Y-81709219D02*
X197326666Y-81661600D01*
X197326666Y-81661600D02*
X197374285Y-81613980D01*
X197374285Y-81613980D02*
X197421904Y-81518742D01*
X197421904Y-81518742D02*
X197469523Y-81328266D01*
X197469523Y-81328266D02*
X197469523Y-81090171D01*
X197469523Y-81090171D02*
X197421904Y-80899695D01*
X197421904Y-80899695D02*
X197374285Y-80804457D01*
X197374285Y-80804457D02*
X197326666Y-80756838D01*
X197326666Y-80756838D02*
X197231428Y-80709219D01*
X190230476Y-81709219D02*
X190801904Y-81709219D01*
X190516190Y-81709219D02*
X190516190Y-80709219D01*
X190516190Y-80709219D02*
X190611428Y-80852076D01*
X190611428Y-80852076D02*
X190706666Y-80947314D01*
X190706666Y-80947314D02*
X190801904Y-80994933D01*
X189849523Y-80804457D02*
X189801904Y-80756838D01*
X189801904Y-80756838D02*
X189706666Y-80709219D01*
X189706666Y-80709219D02*
X189468571Y-80709219D01*
X189468571Y-80709219D02*
X189373333Y-80756838D01*
X189373333Y-80756838D02*
X189325714Y-80804457D01*
X189325714Y-80804457D02*
X189278095Y-80899695D01*
X189278095Y-80899695D02*
X189278095Y-80994933D01*
X189278095Y-80994933D02*
X189325714Y-81137790D01*
X189325714Y-81137790D02*
X189897142Y-81709219D01*
X189897142Y-81709219D02*
X189278095Y-81709219D01*
X190373332Y-92645619D02*
X189754285Y-92645619D01*
X189754285Y-92645619D02*
X190087618Y-93026571D01*
X190087618Y-93026571D02*
X189944761Y-93026571D01*
X189944761Y-93026571D02*
X189849523Y-93074190D01*
X189849523Y-93074190D02*
X189801904Y-93121809D01*
X189801904Y-93121809D02*
X189754285Y-93217047D01*
X189754285Y-93217047D02*
X189754285Y-93455142D01*
X189754285Y-93455142D02*
X189801904Y-93550380D01*
X189801904Y-93550380D02*
X189849523Y-93598000D01*
X189849523Y-93598000D02*
X189944761Y-93645619D01*
X189944761Y-93645619D02*
X190230475Y-93645619D01*
X190230475Y-93645619D02*
X190325713Y-93598000D01*
X190325713Y-93598000D02*
X190373332Y-93550380D01*
X193889523Y-92645619D02*
X193556190Y-93645619D01*
X193556190Y-93645619D02*
X193222857Y-92645619D01*
X192318095Y-93550380D02*
X192365714Y-93598000D01*
X192365714Y-93598000D02*
X192508571Y-93645619D01*
X192508571Y-93645619D02*
X192603809Y-93645619D01*
X192603809Y-93645619D02*
X192746666Y-93598000D01*
X192746666Y-93598000D02*
X192841904Y-93502761D01*
X192841904Y-93502761D02*
X192889523Y-93407523D01*
X192889523Y-93407523D02*
X192937142Y-93217047D01*
X192937142Y-93217047D02*
X192937142Y-93074190D01*
X192937142Y-93074190D02*
X192889523Y-92883714D01*
X192889523Y-92883714D02*
X192841904Y-92788476D01*
X192841904Y-92788476D02*
X192746666Y-92693238D01*
X192746666Y-92693238D02*
X192603809Y-92645619D01*
X192603809Y-92645619D02*
X192508571Y-92645619D01*
X192508571Y-92645619D02*
X192365714Y-92693238D01*
X192365714Y-92693238D02*
X192318095Y-92740857D01*
X191365714Y-93645619D02*
X191937142Y-93645619D01*
X191651428Y-93645619D02*
X191651428Y-92645619D01*
X191651428Y-92645619D02*
X191746666Y-92788476D01*
X191746666Y-92788476D02*
X191841904Y-92883714D01*
X191841904Y-92883714D02*
X191937142Y-92931333D01*
X191048856Y-84553333D02*
X191096475Y-84696190D01*
X191096475Y-84696190D02*
X191096475Y-84934285D01*
X191096475Y-84934285D02*
X191048856Y-85029523D01*
X191048856Y-85029523D02*
X191001236Y-85077142D01*
X191001236Y-85077142D02*
X190905998Y-85124761D01*
X190905998Y-85124761D02*
X190810760Y-85124761D01*
X190810760Y-85124761D02*
X190715522Y-85077142D01*
X190715522Y-85077142D02*
X190667903Y-85029523D01*
X190667903Y-85029523D02*
X190620284Y-84934285D01*
X190620284Y-84934285D02*
X190572665Y-84743809D01*
X190572665Y-84743809D02*
X190525046Y-84648571D01*
X190525046Y-84648571D02*
X190477427Y-84600952D01*
X190477427Y-84600952D02*
X190382189Y-84553333D01*
X190382189Y-84553333D02*
X190286951Y-84553333D01*
X190286951Y-84553333D02*
X190191713Y-84600952D01*
X190191713Y-84600952D02*
X190144094Y-84648571D01*
X190144094Y-84648571D02*
X190096475Y-84743809D01*
X190096475Y-84743809D02*
X190096475Y-84981904D01*
X190096475Y-84981904D02*
X190144094Y-85124761D01*
X190096475Y-85458095D02*
X191096475Y-86124761D01*
X190096475Y-86124761D02*
X191096475Y-85458095D01*
X191096475Y-87029523D02*
X191096475Y-86458095D01*
X191096475Y-86743809D02*
X190096475Y-86743809D01*
X190096475Y-86743809D02*
X190239332Y-86648571D01*
X190239332Y-86648571D02*
X190334570Y-86553333D01*
X190334570Y-86553333D02*
X190382189Y-86458095D01*
X190096475Y-87934285D02*
X190096475Y-87458095D01*
X190096475Y-87458095D02*
X190572665Y-87410476D01*
X190572665Y-87410476D02*
X190525046Y-87458095D01*
X190525046Y-87458095D02*
X190477427Y-87553333D01*
X190477427Y-87553333D02*
X190477427Y-87791428D01*
X190477427Y-87791428D02*
X190525046Y-87886666D01*
X190525046Y-87886666D02*
X190572665Y-87934285D01*
X190572665Y-87934285D02*
X190667903Y-87981904D01*
X190667903Y-87981904D02*
X190905998Y-87981904D01*
X190905998Y-87981904D02*
X191001236Y-87934285D01*
X191001236Y-87934285D02*
X191048856Y-87886666D01*
X191048856Y-87886666D02*
X191096475Y-87791428D01*
X191096475Y-87791428D02*
X191096475Y-87553333D01*
X191096475Y-87553333D02*
X191048856Y-87458095D01*
X191048856Y-87458095D02*
X191001236Y-87410476D01*
X190096475Y-88600952D02*
X190096475Y-88696190D01*
X190096475Y-88696190D02*
X190144094Y-88791428D01*
X190144094Y-88791428D02*
X190191713Y-88839047D01*
X190191713Y-88839047D02*
X190286951Y-88886666D01*
X190286951Y-88886666D02*
X190477427Y-88934285D01*
X190477427Y-88934285D02*
X190715522Y-88934285D01*
X190715522Y-88934285D02*
X190905998Y-88886666D01*
X190905998Y-88886666D02*
X191001236Y-88839047D01*
X191001236Y-88839047D02*
X191048856Y-88791428D01*
X191048856Y-88791428D02*
X191096475Y-88696190D01*
X191096475Y-88696190D02*
X191096475Y-88600952D01*
X191096475Y-88600952D02*
X191048856Y-88505714D01*
X191048856Y-88505714D02*
X191001236Y-88458095D01*
X191001236Y-88458095D02*
X190905998Y-88410476D01*
X190905998Y-88410476D02*
X190715522Y-88362857D01*
X190715522Y-88362857D02*
X190477427Y-88362857D01*
X190477427Y-88362857D02*
X190286951Y-88410476D01*
X190286951Y-88410476D02*
X190191713Y-88458095D01*
X190191713Y-88458095D02*
X190144094Y-88505714D01*
X190144094Y-88505714D02*
X190096475Y-88600952D01*
X191096475Y-89410476D02*
X191096475Y-89600952D01*
X191096475Y-89600952D02*
X191048856Y-89696190D01*
X191048856Y-89696190D02*
X191001236Y-89743809D01*
X191001236Y-89743809D02*
X190858379Y-89839047D01*
X190858379Y-89839047D02*
X190667903Y-89886666D01*
X190667903Y-89886666D02*
X190286951Y-89886666D01*
X190286951Y-89886666D02*
X190191713Y-89839047D01*
X190191713Y-89839047D02*
X190144094Y-89791428D01*
X190144094Y-89791428D02*
X190096475Y-89696190D01*
X190096475Y-89696190D02*
X190096475Y-89505714D01*
X190096475Y-89505714D02*
X190144094Y-89410476D01*
X190144094Y-89410476D02*
X190191713Y-89362857D01*
X190191713Y-89362857D02*
X190286951Y-89315238D01*
X190286951Y-89315238D02*
X190525046Y-89315238D01*
X190525046Y-89315238D02*
X190620284Y-89362857D01*
X190620284Y-89362857D02*
X190667903Y-89410476D01*
X190667903Y-89410476D02*
X190715522Y-89505714D01*
X190715522Y-89505714D02*
X190715522Y-89696190D01*
X190715522Y-89696190D02*
X190667903Y-89791428D01*
X190667903Y-89791428D02*
X190620284Y-89839047D01*
X190620284Y-89839047D02*
X190525046Y-89886666D01*
X192182609Y-84505713D02*
X192230228Y-84648570D01*
X192230228Y-84648570D02*
X192277847Y-84696189D01*
X192277847Y-84696189D02*
X192373085Y-84743808D01*
X192373085Y-84743808D02*
X192515942Y-84743808D01*
X192515942Y-84743808D02*
X192611180Y-84696189D01*
X192611180Y-84696189D02*
X192658800Y-84648570D01*
X192658800Y-84648570D02*
X192706419Y-84553332D01*
X192706419Y-84553332D02*
X192706419Y-84172380D01*
X192706419Y-84172380D02*
X191706419Y-84172380D01*
X191706419Y-84172380D02*
X191706419Y-84505713D01*
X191706419Y-84505713D02*
X191754038Y-84600951D01*
X191754038Y-84600951D02*
X191801657Y-84648570D01*
X191801657Y-84648570D02*
X191896895Y-84696189D01*
X191896895Y-84696189D02*
X191992133Y-84696189D01*
X191992133Y-84696189D02*
X192087371Y-84648570D01*
X192087371Y-84648570D02*
X192134990Y-84600951D01*
X192134990Y-84600951D02*
X192182609Y-84505713D01*
X192182609Y-84505713D02*
X192182609Y-84172380D01*
X192706419Y-85172380D02*
X192039752Y-85172380D01*
X192230228Y-85172380D02*
X192134990Y-85219999D01*
X192134990Y-85219999D02*
X192087371Y-85267618D01*
X192087371Y-85267618D02*
X192039752Y-85362856D01*
X192039752Y-85362856D02*
X192039752Y-85458094D01*
X192658800Y-86172380D02*
X192706419Y-86077142D01*
X192706419Y-86077142D02*
X192706419Y-85886666D01*
X192706419Y-85886666D02*
X192658800Y-85791428D01*
X192658800Y-85791428D02*
X192563561Y-85743809D01*
X192563561Y-85743809D02*
X192182609Y-85743809D01*
X192182609Y-85743809D02*
X192087371Y-85791428D01*
X192087371Y-85791428D02*
X192039752Y-85886666D01*
X192039752Y-85886666D02*
X192039752Y-86077142D01*
X192039752Y-86077142D02*
X192087371Y-86172380D01*
X192087371Y-86172380D02*
X192182609Y-86219999D01*
X192182609Y-86219999D02*
X192277847Y-86219999D01*
X192277847Y-86219999D02*
X192373085Y-85743809D01*
X192706419Y-87077142D02*
X192182609Y-87077142D01*
X192182609Y-87077142D02*
X192087371Y-87029523D01*
X192087371Y-87029523D02*
X192039752Y-86934285D01*
X192039752Y-86934285D02*
X192039752Y-86743809D01*
X192039752Y-86743809D02*
X192087371Y-86648571D01*
X192658800Y-87077142D02*
X192706419Y-86981904D01*
X192706419Y-86981904D02*
X192706419Y-86743809D01*
X192706419Y-86743809D02*
X192658800Y-86648571D01*
X192658800Y-86648571D02*
X192563561Y-86600952D01*
X192563561Y-86600952D02*
X192468323Y-86600952D01*
X192468323Y-86600952D02*
X192373085Y-86648571D01*
X192373085Y-86648571D02*
X192325466Y-86743809D01*
X192325466Y-86743809D02*
X192325466Y-86981904D01*
X192325466Y-86981904D02*
X192277847Y-87077142D01*
X192706419Y-87553333D02*
X191706419Y-87553333D01*
X192325466Y-87648571D02*
X192706419Y-87934285D01*
X192039752Y-87934285D02*
X192420704Y-87553333D01*
X192706419Y-88505714D02*
X192658800Y-88410476D01*
X192658800Y-88410476D02*
X192611180Y-88362857D01*
X192611180Y-88362857D02*
X192515942Y-88315238D01*
X192515942Y-88315238D02*
X192230228Y-88315238D01*
X192230228Y-88315238D02*
X192134990Y-88362857D01*
X192134990Y-88362857D02*
X192087371Y-88410476D01*
X192087371Y-88410476D02*
X192039752Y-88505714D01*
X192039752Y-88505714D02*
X192039752Y-88648571D01*
X192039752Y-88648571D02*
X192087371Y-88743809D01*
X192087371Y-88743809D02*
X192134990Y-88791428D01*
X192134990Y-88791428D02*
X192230228Y-88839047D01*
X192230228Y-88839047D02*
X192515942Y-88839047D01*
X192515942Y-88839047D02*
X192611180Y-88791428D01*
X192611180Y-88791428D02*
X192658800Y-88743809D01*
X192658800Y-88743809D02*
X192706419Y-88648571D01*
X192706419Y-88648571D02*
X192706419Y-88505714D01*
X192039752Y-89696190D02*
X192706419Y-89696190D01*
X192039752Y-89267619D02*
X192563561Y-89267619D01*
X192563561Y-89267619D02*
X192658800Y-89315238D01*
X192658800Y-89315238D02*
X192706419Y-89410476D01*
X192706419Y-89410476D02*
X192706419Y-89553333D01*
X192706419Y-89553333D02*
X192658800Y-89648571D01*
X192658800Y-89648571D02*
X192611180Y-89696190D01*
X192039752Y-90029524D02*
X192039752Y-90410476D01*
X191706419Y-90172381D02*
X192563561Y-90172381D01*
X192563561Y-90172381D02*
X192658800Y-90220000D01*
X192658800Y-90220000D02*
X192706419Y-90315238D01*
X192706419Y-90315238D02*
X192706419Y-90410476D01*
X182467618Y-92645619D02*
X182372380Y-92645619D01*
X182372380Y-92645619D02*
X182277142Y-92693238D01*
X182277142Y-92693238D02*
X182229523Y-92740857D01*
X182229523Y-92740857D02*
X182181904Y-92836095D01*
X182181904Y-92836095D02*
X182134285Y-93026571D01*
X182134285Y-93026571D02*
X182134285Y-93264666D01*
X182134285Y-93264666D02*
X182181904Y-93455142D01*
X182181904Y-93455142D02*
X182229523Y-93550380D01*
X182229523Y-93550380D02*
X182277142Y-93598000D01*
X182277142Y-93598000D02*
X182372380Y-93645619D01*
X182372380Y-93645619D02*
X182467618Y-93645619D01*
X182467618Y-93645619D02*
X182562856Y-93598000D01*
X182562856Y-93598000D02*
X182610475Y-93550380D01*
X182610475Y-93550380D02*
X182658094Y-93455142D01*
X182658094Y-93455142D02*
X182705713Y-93264666D01*
X182705713Y-93264666D02*
X182705713Y-93026571D01*
X182705713Y-93026571D02*
X182658094Y-92836095D01*
X182658094Y-92836095D02*
X182610475Y-92740857D01*
X182610475Y-92740857D02*
X182562856Y-92693238D01*
X182562856Y-92693238D02*
X182467618Y-92645619D01*
X179790038Y-81238095D02*
X179742419Y-81142857D01*
X179742419Y-81142857D02*
X179742419Y-81000000D01*
X179742419Y-81000000D02*
X179790038Y-80857143D01*
X179790038Y-80857143D02*
X179885276Y-80761905D01*
X179885276Y-80761905D02*
X179980514Y-80714286D01*
X179980514Y-80714286D02*
X180170990Y-80666667D01*
X180170990Y-80666667D02*
X180313847Y-80666667D01*
X180313847Y-80666667D02*
X180504323Y-80714286D01*
X180504323Y-80714286D02*
X180599561Y-80761905D01*
X180599561Y-80761905D02*
X180694800Y-80857143D01*
X180694800Y-80857143D02*
X180742419Y-81000000D01*
X180742419Y-81000000D02*
X180742419Y-81095238D01*
X180742419Y-81095238D02*
X180694800Y-81238095D01*
X180694800Y-81238095D02*
X180647180Y-81285714D01*
X180647180Y-81285714D02*
X180313847Y-81285714D01*
X180313847Y-81285714D02*
X180313847Y-81095238D01*
X180742419Y-81714286D02*
X179742419Y-81714286D01*
X179742419Y-81714286D02*
X180742419Y-82285714D01*
X180742419Y-82285714D02*
X179742419Y-82285714D01*
X180742419Y-82761905D02*
X179742419Y-82761905D01*
X179742419Y-82761905D02*
X179742419Y-83000000D01*
X179742419Y-83000000D02*
X179790038Y-83142857D01*
X179790038Y-83142857D02*
X179885276Y-83238095D01*
X179885276Y-83238095D02*
X179980514Y-83285714D01*
X179980514Y-83285714D02*
X180170990Y-83333333D01*
X180170990Y-83333333D02*
X180313847Y-83333333D01*
X180313847Y-83333333D02*
X180504323Y-83285714D01*
X180504323Y-83285714D02*
X180599561Y-83238095D01*
X180599561Y-83238095D02*
X180694800Y-83142857D01*
X180694800Y-83142857D02*
X180742419Y-83000000D01*
X180742419Y-83000000D02*
X180742419Y-82761905D01*
X179469122Y-91106466D02*
X179421503Y-91058847D01*
X179421503Y-91058847D02*
X179326265Y-91011228D01*
X179326265Y-91011228D02*
X179135789Y-91106466D01*
X179135789Y-91106466D02*
X179040551Y-91058847D01*
X179040551Y-91058847D02*
X178992932Y-91011228D01*
X178040551Y-91487419D02*
X178373884Y-91011228D01*
X178611979Y-91487419D02*
X178611979Y-90487419D01*
X178611979Y-90487419D02*
X178231027Y-90487419D01*
X178231027Y-90487419D02*
X178135789Y-90535038D01*
X178135789Y-90535038D02*
X178088170Y-90582657D01*
X178088170Y-90582657D02*
X178040551Y-90677895D01*
X178040551Y-90677895D02*
X178040551Y-90820752D01*
X178040551Y-90820752D02*
X178088170Y-90915990D01*
X178088170Y-90915990D02*
X178135789Y-90963609D01*
X178135789Y-90963609D02*
X178231027Y-91011228D01*
X178231027Y-91011228D02*
X178611979Y-91011228D01*
X177659598Y-91439800D02*
X177516741Y-91487419D01*
X177516741Y-91487419D02*
X177278646Y-91487419D01*
X177278646Y-91487419D02*
X177183408Y-91439800D01*
X177183408Y-91439800D02*
X177135789Y-91392180D01*
X177135789Y-91392180D02*
X177088170Y-91296942D01*
X177088170Y-91296942D02*
X177088170Y-91201704D01*
X177088170Y-91201704D02*
X177135789Y-91106466D01*
X177135789Y-91106466D02*
X177183408Y-91058847D01*
X177183408Y-91058847D02*
X177278646Y-91011228D01*
X177278646Y-91011228D02*
X177469122Y-90963609D01*
X177469122Y-90963609D02*
X177564360Y-90915990D01*
X177564360Y-90915990D02*
X177611979Y-90868371D01*
X177611979Y-90868371D02*
X177659598Y-90773133D01*
X177659598Y-90773133D02*
X177659598Y-90677895D01*
X177659598Y-90677895D02*
X177611979Y-90582657D01*
X177611979Y-90582657D02*
X177564360Y-90535038D01*
X177564360Y-90535038D02*
X177469122Y-90487419D01*
X177469122Y-90487419D02*
X177231027Y-90487419D01*
X177231027Y-90487419D02*
X177088170Y-90535038D01*
X176802455Y-90487419D02*
X176231027Y-90487419D01*
X176516741Y-91487419D02*
X176516741Y-90487419D01*
X206087353Y-85407419D02*
X205468306Y-85407419D01*
X205468306Y-85407419D02*
X205801639Y-85788371D01*
X205801639Y-85788371D02*
X205658782Y-85788371D01*
X205658782Y-85788371D02*
X205563544Y-85835990D01*
X205563544Y-85835990D02*
X205515925Y-85883609D01*
X205515925Y-85883609D02*
X205468306Y-85978847D01*
X205468306Y-85978847D02*
X205468306Y-86216942D01*
X205468306Y-86216942D02*
X205515925Y-86312180D01*
X205515925Y-86312180D02*
X205563544Y-86359800D01*
X205563544Y-86359800D02*
X205658782Y-86407419D01*
X205658782Y-86407419D02*
X205944496Y-86407419D01*
X205944496Y-86407419D02*
X206039734Y-86359800D01*
X206039734Y-86359800D02*
X206087353Y-86312180D01*
X205039734Y-86312180D02*
X204992115Y-86359800D01*
X204992115Y-86359800D02*
X205039734Y-86407419D01*
X205039734Y-86407419D02*
X205087353Y-86359800D01*
X205087353Y-86359800D02*
X205039734Y-86312180D01*
X205039734Y-86312180D02*
X205039734Y-86407419D01*
X204658782Y-85407419D02*
X204039735Y-85407419D01*
X204039735Y-85407419D02*
X204373068Y-85788371D01*
X204373068Y-85788371D02*
X204230211Y-85788371D01*
X204230211Y-85788371D02*
X204134973Y-85835990D01*
X204134973Y-85835990D02*
X204087354Y-85883609D01*
X204087354Y-85883609D02*
X204039735Y-85978847D01*
X204039735Y-85978847D02*
X204039735Y-86216942D01*
X204039735Y-86216942D02*
X204087354Y-86312180D01*
X204087354Y-86312180D02*
X204134973Y-86359800D01*
X204134973Y-86359800D02*
X204230211Y-86407419D01*
X204230211Y-86407419D02*
X204515925Y-86407419D01*
X204515925Y-86407419D02*
X204611163Y-86359800D01*
X204611163Y-86359800D02*
X204658782Y-86312180D01*
X203754020Y-85407419D02*
X203420687Y-86407419D01*
X203420687Y-86407419D02*
X203087354Y-85407419D01*
X205468306Y-87995038D02*
X205563544Y-87947419D01*
X205563544Y-87947419D02*
X205706401Y-87947419D01*
X205706401Y-87947419D02*
X205849258Y-87995038D01*
X205849258Y-87995038D02*
X205944496Y-88090276D01*
X205944496Y-88090276D02*
X205992115Y-88185514D01*
X205992115Y-88185514D02*
X206039734Y-88375990D01*
X206039734Y-88375990D02*
X206039734Y-88518847D01*
X206039734Y-88518847D02*
X205992115Y-88709323D01*
X205992115Y-88709323D02*
X205944496Y-88804561D01*
X205944496Y-88804561D02*
X205849258Y-88899800D01*
X205849258Y-88899800D02*
X205706401Y-88947419D01*
X205706401Y-88947419D02*
X205611163Y-88947419D01*
X205611163Y-88947419D02*
X205468306Y-88899800D01*
X205468306Y-88899800D02*
X205420687Y-88852180D01*
X205420687Y-88852180D02*
X205420687Y-88518847D01*
X205420687Y-88518847D02*
X205611163Y-88518847D01*
X204992115Y-88947419D02*
X204992115Y-87947419D01*
X204992115Y-87947419D02*
X204420687Y-88947419D01*
X204420687Y-88947419D02*
X204420687Y-87947419D01*
X203944496Y-88947419D02*
X203944496Y-87947419D01*
X203944496Y-87947419D02*
X203706401Y-87947419D01*
X203706401Y-87947419D02*
X203563544Y-87995038D01*
X203563544Y-87995038D02*
X203468306Y-88090276D01*
X203468306Y-88090276D02*
X203420687Y-88185514D01*
X203420687Y-88185514D02*
X203373068Y-88375990D01*
X203373068Y-88375990D02*
X203373068Y-88518847D01*
X203373068Y-88518847D02*
X203420687Y-88709323D01*
X203420687Y-88709323D02*
X203468306Y-88804561D01*
X203468306Y-88804561D02*
X203563544Y-88899800D01*
X203563544Y-88899800D02*
X203706401Y-88947419D01*
X203706401Y-88947419D02*
X203944496Y-88947419D01*
X180020038Y-91638095D02*
X179972419Y-91542857D01*
X179972419Y-91542857D02*
X179972419Y-91400000D01*
X179972419Y-91400000D02*
X180020038Y-91257143D01*
X180020038Y-91257143D02*
X180115276Y-91161905D01*
X180115276Y-91161905D02*
X180210514Y-91114286D01*
X180210514Y-91114286D02*
X180400990Y-91066667D01*
X180400990Y-91066667D02*
X180543847Y-91066667D01*
X180543847Y-91066667D02*
X180734323Y-91114286D01*
X180734323Y-91114286D02*
X180829561Y-91161905D01*
X180829561Y-91161905D02*
X180924800Y-91257143D01*
X180924800Y-91257143D02*
X180972419Y-91400000D01*
X180972419Y-91400000D02*
X180972419Y-91495238D01*
X180972419Y-91495238D02*
X180924800Y-91638095D01*
X180924800Y-91638095D02*
X180877180Y-91685714D01*
X180877180Y-91685714D02*
X180543847Y-91685714D01*
X180543847Y-91685714D02*
X180543847Y-91495238D01*
X180972419Y-92114286D02*
X179972419Y-92114286D01*
X179972419Y-92114286D02*
X180972419Y-92685714D01*
X180972419Y-92685714D02*
X179972419Y-92685714D01*
X180972419Y-93161905D02*
X179972419Y-93161905D01*
X179972419Y-93161905D02*
X179972419Y-93400000D01*
X179972419Y-93400000D02*
X180020038Y-93542857D01*
X180020038Y-93542857D02*
X180115276Y-93638095D01*
X180115276Y-93638095D02*
X180210514Y-93685714D01*
X180210514Y-93685714D02*
X180400990Y-93733333D01*
X180400990Y-93733333D02*
X180543847Y-93733333D01*
X180543847Y-93733333D02*
X180734323Y-93685714D01*
X180734323Y-93685714D02*
X180829561Y-93638095D01*
X180829561Y-93638095D02*
X180924800Y-93542857D01*
X180924800Y-93542857D02*
X180972419Y-93400000D01*
X180972419Y-93400000D02*
X180972419Y-93161905D01*
X194929523Y-92978952D02*
X194929523Y-93645619D01*
X195167618Y-92598000D02*
X195405713Y-93312285D01*
X195405713Y-93312285D02*
X194786666Y-93312285D01*
X205905639Y-92557419D02*
X205715163Y-92557419D01*
X205715163Y-92557419D02*
X205619925Y-92605038D01*
X205619925Y-92605038D02*
X205524687Y-92700276D01*
X205524687Y-92700276D02*
X205477068Y-92890752D01*
X205477068Y-92890752D02*
X205477068Y-93224085D01*
X205477068Y-93224085D02*
X205524687Y-93414561D01*
X205524687Y-93414561D02*
X205619925Y-93509800D01*
X205619925Y-93509800D02*
X205715163Y-93557419D01*
X205715163Y-93557419D02*
X205905639Y-93557419D01*
X205905639Y-93557419D02*
X206000877Y-93509800D01*
X206000877Y-93509800D02*
X206096115Y-93414561D01*
X206096115Y-93414561D02*
X206143734Y-93224085D01*
X206143734Y-93224085D02*
X206143734Y-92890752D01*
X206143734Y-92890752D02*
X206096115Y-92700276D01*
X206096115Y-92700276D02*
X206000877Y-92605038D01*
X206000877Y-92605038D02*
X205905639Y-92557419D01*
X205096115Y-93509800D02*
X204953258Y-93557419D01*
X204953258Y-93557419D02*
X204715163Y-93557419D01*
X204715163Y-93557419D02*
X204619925Y-93509800D01*
X204619925Y-93509800D02*
X204572306Y-93462180D01*
X204572306Y-93462180D02*
X204524687Y-93366942D01*
X204524687Y-93366942D02*
X204524687Y-93271704D01*
X204524687Y-93271704D02*
X204572306Y-93176466D01*
X204572306Y-93176466D02*
X204619925Y-93128847D01*
X204619925Y-93128847D02*
X204715163Y-93081228D01*
X204715163Y-93081228D02*
X204905639Y-93033609D01*
X204905639Y-93033609D02*
X205000877Y-92985990D01*
X205000877Y-92985990D02*
X205048496Y-92938371D01*
X205048496Y-92938371D02*
X205096115Y-92843133D01*
X205096115Y-92843133D02*
X205096115Y-92747895D01*
X205096115Y-92747895D02*
X205048496Y-92652657D01*
X205048496Y-92652657D02*
X205000877Y-92605038D01*
X205000877Y-92605038D02*
X204905639Y-92557419D01*
X204905639Y-92557419D02*
X204667544Y-92557419D01*
X204667544Y-92557419D02*
X204524687Y-92605038D01*
X203524687Y-93462180D02*
X203572306Y-93509800D01*
X203572306Y-93509800D02*
X203715163Y-93557419D01*
X203715163Y-93557419D02*
X203810401Y-93557419D01*
X203810401Y-93557419D02*
X203953258Y-93509800D01*
X203953258Y-93509800D02*
X204048496Y-93414561D01*
X204048496Y-93414561D02*
X204096115Y-93319323D01*
X204096115Y-93319323D02*
X204143734Y-93128847D01*
X204143734Y-93128847D02*
X204143734Y-92985990D01*
X204143734Y-92985990D02*
X204096115Y-92795514D01*
X204096115Y-92795514D02*
X204048496Y-92700276D01*
X204048496Y-92700276D02*
X203953258Y-92605038D01*
X203953258Y-92605038D02*
X203810401Y-92557419D01*
X203810401Y-92557419D02*
X203715163Y-92557419D01*
X203715163Y-92557419D02*
X203572306Y-92605038D01*
X203572306Y-92605038D02*
X203524687Y-92652657D01*
X178707217Y-81279800D02*
X178564360Y-81327419D01*
X178564360Y-81327419D02*
X178326265Y-81327419D01*
X178326265Y-81327419D02*
X178231027Y-81279800D01*
X178231027Y-81279800D02*
X178183408Y-81232180D01*
X178183408Y-81232180D02*
X178135789Y-81136942D01*
X178135789Y-81136942D02*
X178135789Y-81041704D01*
X178135789Y-81041704D02*
X178183408Y-80946466D01*
X178183408Y-80946466D02*
X178231027Y-80898847D01*
X178231027Y-80898847D02*
X178326265Y-80851228D01*
X178326265Y-80851228D02*
X178516741Y-80803609D01*
X178516741Y-80803609D02*
X178611979Y-80755990D01*
X178611979Y-80755990D02*
X178659598Y-80708371D01*
X178659598Y-80708371D02*
X178707217Y-80613133D01*
X178707217Y-80613133D02*
X178707217Y-80517895D01*
X178707217Y-80517895D02*
X178659598Y-80422657D01*
X178659598Y-80422657D02*
X178611979Y-80375038D01*
X178611979Y-80375038D02*
X178516741Y-80327419D01*
X178516741Y-80327419D02*
X178278646Y-80327419D01*
X178278646Y-80327419D02*
X178135789Y-80375038D01*
X177135789Y-81232180D02*
X177183408Y-81279800D01*
X177183408Y-81279800D02*
X177326265Y-81327419D01*
X177326265Y-81327419D02*
X177421503Y-81327419D01*
X177421503Y-81327419D02*
X177564360Y-81279800D01*
X177564360Y-81279800D02*
X177659598Y-81184561D01*
X177659598Y-81184561D02*
X177707217Y-81089323D01*
X177707217Y-81089323D02*
X177754836Y-80898847D01*
X177754836Y-80898847D02*
X177754836Y-80755990D01*
X177754836Y-80755990D02*
X177707217Y-80565514D01*
X177707217Y-80565514D02*
X177659598Y-80470276D01*
X177659598Y-80470276D02*
X177564360Y-80375038D01*
X177564360Y-80375038D02*
X177421503Y-80327419D01*
X177421503Y-80327419D02*
X177326265Y-80327419D01*
X177326265Y-80327419D02*
X177183408Y-80375038D01*
X177183408Y-80375038D02*
X177135789Y-80422657D01*
X176231027Y-81327419D02*
X176707217Y-81327419D01*
X176707217Y-81327419D02*
X176707217Y-80327419D01*
X184674285Y-93645619D02*
X185245713Y-93645619D01*
X184959999Y-93645619D02*
X184959999Y-92645619D01*
X184959999Y-92645619D02*
X185055237Y-92788476D01*
X185055237Y-92788476D02*
X185150475Y-92883714D01*
X185150475Y-92883714D02*
X185245713Y-92931333D01*
X185150476Y-81709219D02*
X185721904Y-81709219D01*
X185436190Y-81709219D02*
X185436190Y-80709219D01*
X185436190Y-80709219D02*
X185531428Y-80852076D01*
X185531428Y-80852076D02*
X185626666Y-80947314D01*
X185626666Y-80947314D02*
X185721904Y-80994933D01*
X184293333Y-81042552D02*
X184293333Y-81709219D01*
X184531428Y-80661600D02*
X184769523Y-81375885D01*
X184769523Y-81375885D02*
X184150476Y-81375885D01*
X200009523Y-92645619D02*
X200199999Y-92645619D01*
X200199999Y-92645619D02*
X200295237Y-92693238D01*
X200295237Y-92693238D02*
X200342856Y-92740857D01*
X200342856Y-92740857D02*
X200438094Y-92883714D01*
X200438094Y-92883714D02*
X200485713Y-93074190D01*
X200485713Y-93074190D02*
X200485713Y-93455142D01*
X200485713Y-93455142D02*
X200438094Y-93550380D01*
X200438094Y-93550380D02*
X200390475Y-93598000D01*
X200390475Y-93598000D02*
X200295237Y-93645619D01*
X200295237Y-93645619D02*
X200104761Y-93645619D01*
X200104761Y-93645619D02*
X200009523Y-93598000D01*
X200009523Y-93598000D02*
X199961904Y-93550380D01*
X199961904Y-93550380D02*
X199914285Y-93455142D01*
X199914285Y-93455142D02*
X199914285Y-93217047D01*
X199914285Y-93217047D02*
X199961904Y-93121809D01*
X199961904Y-93121809D02*
X200009523Y-93074190D01*
X200009523Y-93074190D02*
X200104761Y-93026571D01*
X200104761Y-93026571D02*
X200295237Y-93026571D01*
X200295237Y-93026571D02*
X200390475Y-93074190D01*
X200390475Y-93074190D02*
X200438094Y-93121809D01*
X200438094Y-93121809D02*
X200485713Y-93217047D01*
X182610476Y-81709219D02*
X183181904Y-81709219D01*
X182896190Y-81709219D02*
X182896190Y-80709219D01*
X182896190Y-80709219D02*
X182991428Y-80852076D01*
X182991428Y-80852076D02*
X183086666Y-80947314D01*
X183086666Y-80947314D02*
X183181904Y-80994933D01*
X181705714Y-80709219D02*
X182181904Y-80709219D01*
X182181904Y-80709219D02*
X182229523Y-81185409D01*
X182229523Y-81185409D02*
X182181904Y-81137790D01*
X182181904Y-81137790D02*
X182086666Y-81090171D01*
X182086666Y-81090171D02*
X181848571Y-81090171D01*
X181848571Y-81090171D02*
X181753333Y-81137790D01*
X181753333Y-81137790D02*
X181705714Y-81185409D01*
X181705714Y-81185409D02*
X181658095Y-81280647D01*
X181658095Y-81280647D02*
X181658095Y-81518742D01*
X181658095Y-81518742D02*
X181705714Y-81613980D01*
X181705714Y-81613980D02*
X181753333Y-81661600D01*
X181753333Y-81661600D02*
X181848571Y-81709219D01*
X181848571Y-81709219D02*
X182086666Y-81709219D01*
X182086666Y-81709219D02*
X182181904Y-81661600D01*
X182181904Y-81661600D02*
X182229523Y-81613980D01*
X206134972Y-91106466D02*
X206087353Y-91058847D01*
X206087353Y-91058847D02*
X205992115Y-91011228D01*
X205992115Y-91011228D02*
X205801639Y-91106466D01*
X205801639Y-91106466D02*
X205706401Y-91058847D01*
X205706401Y-91058847D02*
X205658782Y-91011228D01*
X204706401Y-91487419D02*
X205039734Y-91011228D01*
X205277829Y-91487419D02*
X205277829Y-90487419D01*
X205277829Y-90487419D02*
X204896877Y-90487419D01*
X204896877Y-90487419D02*
X204801639Y-90535038D01*
X204801639Y-90535038D02*
X204754020Y-90582657D01*
X204754020Y-90582657D02*
X204706401Y-90677895D01*
X204706401Y-90677895D02*
X204706401Y-90820752D01*
X204706401Y-90820752D02*
X204754020Y-90915990D01*
X204754020Y-90915990D02*
X204801639Y-90963609D01*
X204801639Y-90963609D02*
X204896877Y-91011228D01*
X204896877Y-91011228D02*
X205277829Y-91011228D01*
X204325448Y-91439800D02*
X204182591Y-91487419D01*
X204182591Y-91487419D02*
X203944496Y-91487419D01*
X203944496Y-91487419D02*
X203849258Y-91439800D01*
X203849258Y-91439800D02*
X203801639Y-91392180D01*
X203801639Y-91392180D02*
X203754020Y-91296942D01*
X203754020Y-91296942D02*
X203754020Y-91201704D01*
X203754020Y-91201704D02*
X203801639Y-91106466D01*
X203801639Y-91106466D02*
X203849258Y-91058847D01*
X203849258Y-91058847D02*
X203944496Y-91011228D01*
X203944496Y-91011228D02*
X204134972Y-90963609D01*
X204134972Y-90963609D02*
X204230210Y-90915990D01*
X204230210Y-90915990D02*
X204277829Y-90868371D01*
X204277829Y-90868371D02*
X204325448Y-90773133D01*
X204325448Y-90773133D02*
X204325448Y-90677895D01*
X204325448Y-90677895D02*
X204277829Y-90582657D01*
X204277829Y-90582657D02*
X204230210Y-90535038D01*
X204230210Y-90535038D02*
X204134972Y-90487419D01*
X204134972Y-90487419D02*
X203896877Y-90487419D01*
X203896877Y-90487419D02*
X203754020Y-90535038D01*
X203468305Y-90487419D02*
X202896877Y-90487419D01*
X203182591Y-91487419D02*
X203182591Y-90487419D01*
X178754836Y-83819800D02*
X178611979Y-83867419D01*
X178611979Y-83867419D02*
X178373884Y-83867419D01*
X178373884Y-83867419D02*
X178278646Y-83819800D01*
X178278646Y-83819800D02*
X178231027Y-83772180D01*
X178231027Y-83772180D02*
X178183408Y-83676942D01*
X178183408Y-83676942D02*
X178183408Y-83581704D01*
X178183408Y-83581704D02*
X178231027Y-83486466D01*
X178231027Y-83486466D02*
X178278646Y-83438847D01*
X178278646Y-83438847D02*
X178373884Y-83391228D01*
X178373884Y-83391228D02*
X178564360Y-83343609D01*
X178564360Y-83343609D02*
X178659598Y-83295990D01*
X178659598Y-83295990D02*
X178707217Y-83248371D01*
X178707217Y-83248371D02*
X178754836Y-83153133D01*
X178754836Y-83153133D02*
X178754836Y-83057895D01*
X178754836Y-83057895D02*
X178707217Y-82962657D01*
X178707217Y-82962657D02*
X178659598Y-82915038D01*
X178659598Y-82915038D02*
X178564360Y-82867419D01*
X178564360Y-82867419D02*
X178326265Y-82867419D01*
X178326265Y-82867419D02*
X178183408Y-82915038D01*
X177754836Y-83867419D02*
X177754836Y-82867419D01*
X177754836Y-82867419D02*
X177516741Y-82867419D01*
X177516741Y-82867419D02*
X177373884Y-82915038D01*
X177373884Y-82915038D02*
X177278646Y-83010276D01*
X177278646Y-83010276D02*
X177231027Y-83105514D01*
X177231027Y-83105514D02*
X177183408Y-83295990D01*
X177183408Y-83295990D02*
X177183408Y-83438847D01*
X177183408Y-83438847D02*
X177231027Y-83629323D01*
X177231027Y-83629323D02*
X177278646Y-83724561D01*
X177278646Y-83724561D02*
X177373884Y-83819800D01*
X177373884Y-83819800D02*
X177516741Y-83867419D01*
X177516741Y-83867419D02*
X177754836Y-83867419D01*
X176802455Y-83581704D02*
X176326265Y-83581704D01*
X176897693Y-83867419D02*
X176564360Y-82867419D01*
X176564360Y-82867419D02*
X176231027Y-83867419D01*
X195310476Y-81709219D02*
X195881904Y-81709219D01*
X195596190Y-81709219D02*
X195596190Y-80709219D01*
X195596190Y-80709219D02*
X195691428Y-80852076D01*
X195691428Y-80852076D02*
X195786666Y-80947314D01*
X195786666Y-80947314D02*
X195881904Y-80994933D01*
X194358095Y-81709219D02*
X194929523Y-81709219D01*
X194643809Y-81709219D02*
X194643809Y-80709219D01*
X194643809Y-80709219D02*
X194739047Y-80852076D01*
X194739047Y-80852076D02*
X194834285Y-80947314D01*
X194834285Y-80947314D02*
X194929523Y-80994933D01*
X178754836Y-85407419D02*
X178135789Y-85407419D01*
X178135789Y-85407419D02*
X178469122Y-85788371D01*
X178469122Y-85788371D02*
X178326265Y-85788371D01*
X178326265Y-85788371D02*
X178231027Y-85835990D01*
X178231027Y-85835990D02*
X178183408Y-85883609D01*
X178183408Y-85883609D02*
X178135789Y-85978847D01*
X178135789Y-85978847D02*
X178135789Y-86216942D01*
X178135789Y-86216942D02*
X178183408Y-86312180D01*
X178183408Y-86312180D02*
X178231027Y-86359800D01*
X178231027Y-86359800D02*
X178326265Y-86407419D01*
X178326265Y-86407419D02*
X178611979Y-86407419D01*
X178611979Y-86407419D02*
X178707217Y-86359800D01*
X178707217Y-86359800D02*
X178754836Y-86312180D01*
X177850074Y-85407419D02*
X177516741Y-86407419D01*
X177516741Y-86407419D02*
X177183408Y-85407419D01*
X176945312Y-85407419D02*
X176326265Y-85407419D01*
X176326265Y-85407419D02*
X176659598Y-85788371D01*
X176659598Y-85788371D02*
X176516741Y-85788371D01*
X176516741Y-85788371D02*
X176421503Y-85835990D01*
X176421503Y-85835990D02*
X176373884Y-85883609D01*
X176373884Y-85883609D02*
X176326265Y-85978847D01*
X176326265Y-85978847D02*
X176326265Y-86216942D01*
X176326265Y-86216942D02*
X176373884Y-86312180D01*
X176373884Y-86312180D02*
X176421503Y-86359800D01*
X176421503Y-86359800D02*
X176516741Y-86407419D01*
X176516741Y-86407419D02*
X176802455Y-86407419D01*
X176802455Y-86407419D02*
X176897693Y-86359800D01*
X176897693Y-86359800D02*
X176945312Y-86312180D01*
X197421904Y-92645619D02*
X197898094Y-92645619D01*
X197898094Y-92645619D02*
X197945713Y-93121809D01*
X197945713Y-93121809D02*
X197898094Y-93074190D01*
X197898094Y-93074190D02*
X197802856Y-93026571D01*
X197802856Y-93026571D02*
X197564761Y-93026571D01*
X197564761Y-93026571D02*
X197469523Y-93074190D01*
X197469523Y-93074190D02*
X197421904Y-93121809D01*
X197421904Y-93121809D02*
X197374285Y-93217047D01*
X197374285Y-93217047D02*
X197374285Y-93455142D01*
X197374285Y-93455142D02*
X197421904Y-93550380D01*
X197421904Y-93550380D02*
X197469523Y-93598000D01*
X197469523Y-93598000D02*
X197564761Y-93645619D01*
X197564761Y-93645619D02*
X197802856Y-93645619D01*
X197802856Y-93645619D02*
X197898094Y-93598000D01*
X197898094Y-93598000D02*
X197945713Y-93550380D01*
D11*
X172229819Y-86579525D02*
X171753628Y-86246192D01*
X172229819Y-86008097D02*
X171229819Y-86008097D01*
X171229819Y-86008097D02*
X171229819Y-86389049D01*
X171229819Y-86389049D02*
X171277438Y-86484287D01*
X171277438Y-86484287D02*
X171325057Y-86531906D01*
X171325057Y-86531906D02*
X171420295Y-86579525D01*
X171420295Y-86579525D02*
X171563152Y-86579525D01*
X171563152Y-86579525D02*
X171658390Y-86531906D01*
X171658390Y-86531906D02*
X171706009Y-86484287D01*
X171706009Y-86484287D02*
X171753628Y-86389049D01*
X171753628Y-86389049D02*
X171753628Y-86008097D01*
X171325057Y-86960478D02*
X171277438Y-87008097D01*
X171277438Y-87008097D02*
X171229819Y-87103335D01*
X171229819Y-87103335D02*
X171229819Y-87341430D01*
X171229819Y-87341430D02*
X171277438Y-87436668D01*
X171277438Y-87436668D02*
X171325057Y-87484287D01*
X171325057Y-87484287D02*
X171420295Y-87531906D01*
X171420295Y-87531906D02*
X171515533Y-87531906D01*
X171515533Y-87531906D02*
X171658390Y-87484287D01*
X171658390Y-87484287D02*
X172229819Y-86912859D01*
X172229819Y-86912859D02*
X172229819Y-87531906D01*
X108009580Y-84557142D02*
X108057200Y-84509523D01*
X108057200Y-84509523D02*
X108104819Y-84366666D01*
X108104819Y-84366666D02*
X108104819Y-84271428D01*
X108104819Y-84271428D02*
X108057200Y-84128571D01*
X108057200Y-84128571D02*
X107961961Y-84033333D01*
X107961961Y-84033333D02*
X107866723Y-83985714D01*
X107866723Y-83985714D02*
X107676247Y-83938095D01*
X107676247Y-83938095D02*
X107533390Y-83938095D01*
X107533390Y-83938095D02*
X107342914Y-83985714D01*
X107342914Y-83985714D02*
X107247676Y-84033333D01*
X107247676Y-84033333D02*
X107152438Y-84128571D01*
X107152438Y-84128571D02*
X107104819Y-84271428D01*
X107104819Y-84271428D02*
X107104819Y-84366666D01*
X107104819Y-84366666D02*
X107152438Y-84509523D01*
X107152438Y-84509523D02*
X107200057Y-84557142D01*
X108104819Y-85509523D02*
X108104819Y-84938095D01*
X108104819Y-85223809D02*
X107104819Y-85223809D01*
X107104819Y-85223809D02*
X107247676Y-85128571D01*
X107247676Y-85128571D02*
X107342914Y-85033333D01*
X107342914Y-85033333D02*
X107390533Y-84938095D01*
X107104819Y-86414285D02*
X107104819Y-85938095D01*
X107104819Y-85938095D02*
X107581009Y-85890476D01*
X107581009Y-85890476D02*
X107533390Y-85938095D01*
X107533390Y-85938095D02*
X107485771Y-86033333D01*
X107485771Y-86033333D02*
X107485771Y-86271428D01*
X107485771Y-86271428D02*
X107533390Y-86366666D01*
X107533390Y-86366666D02*
X107581009Y-86414285D01*
X107581009Y-86414285D02*
X107676247Y-86461904D01*
X107676247Y-86461904D02*
X107914342Y-86461904D01*
X107914342Y-86461904D02*
X108009580Y-86414285D01*
X108009580Y-86414285D02*
X108057200Y-86366666D01*
X108057200Y-86366666D02*
X108104819Y-86271428D01*
X108104819Y-86271428D02*
X108104819Y-86033333D01*
X108104819Y-86033333D02*
X108057200Y-85938095D01*
X108057200Y-85938095D02*
X108009580Y-85890476D01*
X114354819Y-85453333D02*
X113878628Y-85120000D01*
X114354819Y-84881905D02*
X113354819Y-84881905D01*
X113354819Y-84881905D02*
X113354819Y-85262857D01*
X113354819Y-85262857D02*
X113402438Y-85358095D01*
X113402438Y-85358095D02*
X113450057Y-85405714D01*
X113450057Y-85405714D02*
X113545295Y-85453333D01*
X113545295Y-85453333D02*
X113688152Y-85453333D01*
X113688152Y-85453333D02*
X113783390Y-85405714D01*
X113783390Y-85405714D02*
X113831009Y-85358095D01*
X113831009Y-85358095D02*
X113878628Y-85262857D01*
X113878628Y-85262857D02*
X113878628Y-84881905D01*
X113354819Y-85786667D02*
X113354819Y-86405714D01*
X113354819Y-86405714D02*
X113735771Y-86072381D01*
X113735771Y-86072381D02*
X113735771Y-86215238D01*
X113735771Y-86215238D02*
X113783390Y-86310476D01*
X113783390Y-86310476D02*
X113831009Y-86358095D01*
X113831009Y-86358095D02*
X113926247Y-86405714D01*
X113926247Y-86405714D02*
X114164342Y-86405714D01*
X114164342Y-86405714D02*
X114259580Y-86358095D01*
X114259580Y-86358095D02*
X114307200Y-86310476D01*
X114307200Y-86310476D02*
X114354819Y-86215238D01*
X114354819Y-86215238D02*
X114354819Y-85929524D01*
X114354819Y-85929524D02*
X114307200Y-85834286D01*
X114307200Y-85834286D02*
X114259580Y-85786667D01*
X121824819Y-85573333D02*
X121348628Y-85240000D01*
X121824819Y-85001905D02*
X120824819Y-85001905D01*
X120824819Y-85001905D02*
X120824819Y-85382857D01*
X120824819Y-85382857D02*
X120872438Y-85478095D01*
X120872438Y-85478095D02*
X120920057Y-85525714D01*
X120920057Y-85525714D02*
X121015295Y-85573333D01*
X121015295Y-85573333D02*
X121158152Y-85573333D01*
X121158152Y-85573333D02*
X121253390Y-85525714D01*
X121253390Y-85525714D02*
X121301009Y-85478095D01*
X121301009Y-85478095D02*
X121348628Y-85382857D01*
X121348628Y-85382857D02*
X121348628Y-85001905D01*
X121158152Y-86430476D02*
X121824819Y-86430476D01*
X120777200Y-86192381D02*
X121491485Y-85954286D01*
X121491485Y-85954286D02*
X121491485Y-86573333D01*
X164929819Y-86379525D02*
X164453628Y-86046192D01*
X164929819Y-85808097D02*
X163929819Y-85808097D01*
X163929819Y-85808097D02*
X163929819Y-86189049D01*
X163929819Y-86189049D02*
X163977438Y-86284287D01*
X163977438Y-86284287D02*
X164025057Y-86331906D01*
X164025057Y-86331906D02*
X164120295Y-86379525D01*
X164120295Y-86379525D02*
X164263152Y-86379525D01*
X164263152Y-86379525D02*
X164358390Y-86331906D01*
X164358390Y-86331906D02*
X164406009Y-86284287D01*
X164406009Y-86284287D02*
X164453628Y-86189049D01*
X164453628Y-86189049D02*
X164453628Y-85808097D01*
X164929819Y-87331906D02*
X164929819Y-86760478D01*
X164929819Y-87046192D02*
X163929819Y-87046192D01*
X163929819Y-87046192D02*
X164072676Y-86950954D01*
X164072676Y-86950954D02*
X164167914Y-86855716D01*
X164167914Y-86855716D02*
X164215533Y-86760478D01*
D10*
%TO.C,U5*%
X173500000Y-74470000D02*
X177400000Y-74470000D01*
X173500000Y-99970000D02*
X173500000Y-74470000D01*
X177400000Y-74470000D02*
X178700000Y-75770000D01*
X177400000Y-99970000D02*
X173500000Y-99970000D01*
X178700000Y-75770000D02*
X204000000Y-75770000D01*
X178700000Y-98670000D02*
X177400000Y-99970000D01*
X204000000Y-75770000D02*
X205300000Y-74470000D01*
X204000000Y-98670000D02*
X178700000Y-98670000D01*
X205300000Y-74470000D02*
X209200000Y-74470000D01*
X205300000Y-99970000D02*
X204000000Y-98670000D01*
X209200000Y-74470000D02*
X209200000Y-99970000D01*
X209200000Y-99970000D02*
X205300000Y-99970000D01*
D12*
%TO.C,R2*%
X169700000Y-82660000D02*
X169700000Y-83430000D01*
X169700000Y-90740000D02*
X169700000Y-89970000D01*
X168330000Y-83430000D02*
X171070000Y-83430000D01*
X171070000Y-89970000D01*
X168330000Y-89970000D01*
X168330000Y-83430000D01*
%TO.C,C15*%
X108780000Y-82530000D02*
X108780000Y-87870000D01*
X108780000Y-87870000D02*
X109474000Y-87870000D01*
X109474000Y-82530000D02*
X108780000Y-82530000D01*
X111526000Y-87870000D02*
X112220000Y-87870000D01*
X112220000Y-82530000D02*
X111526000Y-82530000D01*
X112220000Y-87870000D02*
X112220000Y-82530000D01*
%TO.C,R3*%
X116000000Y-81980000D02*
X116000000Y-82750000D01*
X116000000Y-90060000D02*
X116000000Y-89290000D01*
X114630000Y-82750000D02*
X117370000Y-82750000D01*
X117370000Y-89290000D01*
X114630000Y-89290000D01*
X114630000Y-82750000D01*
%TO.C,R4*%
X119165000Y-81980000D02*
X119165000Y-82750000D01*
X119165000Y-90060000D02*
X119165000Y-89290000D01*
X117795000Y-82750000D02*
X120535000Y-82750000D01*
X120535000Y-89290000D01*
X117795000Y-89290000D01*
X117795000Y-82750000D01*
%TO.C,R1*%
X166600000Y-82660000D02*
X166600000Y-83430000D01*
X166600000Y-90740000D02*
X166600000Y-89970000D01*
X167970000Y-89970000D02*
X165230000Y-89970000D01*
X165230000Y-83430000D01*
X167970000Y-83430000D01*
X167970000Y-89970000D01*
%TD*%
M02*
