%TF.GenerationSoftware,KiCad,Pcbnew,9.0.6*%
%TF.CreationDate,2026-01-04T18:25:18-08:00*%
%TF.ProjectId,2025_Animation_Controller,32303235-5f41-46e6-996d-6174696f6e5f,rev?*%
%TF.SameCoordinates,Original*%
%TF.FileFunction,Copper,L4,Bot*%
%TF.FilePolarity,Positive*%
%FSLAX46Y46*%
G04 Gerber Fmt 4.6, Leading zero omitted, Abs format (unit mm)*
G04 Created by KiCad (PCBNEW 9.0.6) date 2026-01-04 18:25:18*
%MOMM*%
%LPD*%
G01*
G04 APERTURE LIST*
G04 Aperture macros list*
%AMRoundRect*
0 Rectangle with rounded corners*
0 $1 Rounding radius*
0 $2 $3 $4 $5 $6 $7 $8 $9 X,Y pos of 4 corners*
0 Add a 4 corners polygon primitive as box body*
4,1,4,$2,$3,$4,$5,$6,$7,$8,$9,$2,$3,0*
0 Add four circle primitives for the rounded corners*
1,1,$1+$1,$2,$3*
1,1,$1+$1,$4,$5*
1,1,$1+$1,$6,$7*
1,1,$1+$1,$8,$9*
0 Add four rect primitives between the rounded corners*
20,1,$1+$1,$2,$3,$4,$5,0*
20,1,$1+$1,$4,$5,$6,$7,0*
20,1,$1+$1,$6,$7,$8,$9,0*
20,1,$1+$1,$8,$9,$2,$3,0*%
G04 Aperture macros list end*
%TA.AperFunction,WasherPad*%
%ADD10C,4.000000*%
%TD*%
%TA.AperFunction,ComponentPad*%
%ADD11R,2.000000X2.000000*%
%TD*%
%TA.AperFunction,ComponentPad*%
%ADD12C,2.000000*%
%TD*%
%TA.AperFunction,ComponentPad*%
%ADD13C,3.000000*%
%TD*%
%TA.AperFunction,ComponentPad*%
%ADD14RoundRect,0.250000X0.750000X-0.600000X0.750000X0.600000X-0.750000X0.600000X-0.750000X-0.600000X0*%
%TD*%
%TA.AperFunction,ComponentPad*%
%ADD15O,2.000000X1.700000*%
%TD*%
%TA.AperFunction,ComponentPad*%
%ADD16RoundRect,0.250000X0.600000X0.750000X-0.600000X0.750000X-0.600000X-0.750000X0.600000X-0.750000X0*%
%TD*%
%TA.AperFunction,ComponentPad*%
%ADD17O,1.700000X2.000000*%
%TD*%
%TA.AperFunction,ComponentPad*%
%ADD18RoundRect,0.250000X-0.725000X0.600000X-0.725000X-0.600000X0.725000X-0.600000X0.725000X0.600000X0*%
%TD*%
%TA.AperFunction,ComponentPad*%
%ADD19O,1.950000X1.700000*%
%TD*%
%TA.AperFunction,ComponentPad*%
%ADD20RoundRect,0.250000X0.550000X-0.550000X0.550000X0.550000X-0.550000X0.550000X-0.550000X-0.550000X0*%
%TD*%
%TA.AperFunction,ComponentPad*%
%ADD21C,1.600000*%
%TD*%
%TA.AperFunction,ComponentPad*%
%ADD22RoundRect,0.250000X0.600000X0.725000X-0.600000X0.725000X-0.600000X-0.725000X0.600000X-0.725000X0*%
%TD*%
%TA.AperFunction,ComponentPad*%
%ADD23O,1.700000X1.950000*%
%TD*%
%TA.AperFunction,ComponentPad*%
%ADD24R,2.000000X1.905000*%
%TD*%
%TA.AperFunction,ComponentPad*%
%ADD25O,2.000000X1.905000*%
%TD*%
%TA.AperFunction,ComponentPad*%
%ADD26RoundRect,0.250000X-0.600000X-0.750000X0.600000X-0.750000X0.600000X0.750000X-0.600000X0.750000X0*%
%TD*%
%TA.AperFunction,ComponentPad*%
%ADD27RoundRect,0.250000X-0.550000X0.550000X-0.550000X-0.550000X0.550000X-0.550000X0.550000X0.550000X0*%
%TD*%
%TA.AperFunction,ComponentPad*%
%ADD28RoundRect,0.250000X-0.750000X0.600000X-0.750000X-0.600000X0.750000X-0.600000X0.750000X0.600000X0*%
%TD*%
%TA.AperFunction,ComponentPad*%
%ADD29RoundRect,0.250000X-0.600000X-0.725000X0.600000X-0.725000X0.600000X0.725000X-0.600000X0.725000X0*%
%TD*%
%TA.AperFunction,ComponentPad*%
%ADD30R,1.600000X1.600000*%
%TD*%
%TA.AperFunction,ComponentPad*%
%ADD31RoundRect,0.250000X1.350000X1.350000X-1.350000X1.350000X-1.350000X-1.350000X1.350000X-1.350000X0*%
%TD*%
%TA.AperFunction,ComponentPad*%
%ADD32C,3.200000*%
%TD*%
%TA.AperFunction,ComponentPad*%
%ADD33R,1.700000X1.700000*%
%TD*%
%TA.AperFunction,ComponentPad*%
%ADD34C,1.700000*%
%TD*%
%TA.AperFunction,ComponentPad*%
%ADD35C,1.879600*%
%TD*%
%TA.AperFunction,ViaPad*%
%ADD36C,0.600000*%
%TD*%
%TA.AperFunction,Conductor*%
%ADD37C,0.200000*%
%TD*%
G04 APERTURE END LIST*
D10*
%TO.P,U1,*%
%TO.N,*%
X180720000Y-61600000D03*
X198500000Y-61600000D03*
D11*
%TO.P,U1,1,IN1*%
%TO.N,/LED_1*%
X179450000Y-71760000D03*
D12*
%TO.P,U1,2,IN2*%
%TO.N,/LED_2*%
X181990000Y-71760000D03*
%TO.P,U1,3,IN3*%
%TO.N,/LED_3*%
X184530000Y-71760000D03*
%TO.P,U1,4,IN4*%
%TO.N,/LED_4*%
X187070000Y-71760000D03*
%TO.P,U1,5,IN5*%
%TO.N,/LED_5*%
X189610000Y-71760000D03*
%TO.P,U1,6,IN6*%
%TO.N,/LED_6*%
X192150000Y-71760000D03*
%TO.P,U1,7,IN7*%
%TO.N,/LED_7*%
X194690000Y-71760000D03*
%TO.P,U1,8,IN8*%
%TO.N,/LED_8*%
X197230000Y-71760000D03*
%TO.P,U1,9,GND*%
%TO.N,GND*%
X199770000Y-71760000D03*
%TO.P,U1,10,COM*%
%TO.N,+12V*%
X199770000Y-51440000D03*
%TO.P,U1,11,OUT8*%
%TO.N,/LED_8_12V*%
X197230000Y-51440000D03*
%TO.P,U1,12,OUT7*%
%TO.N,/LED_7_12V*%
X194690000Y-51440000D03*
%TO.P,U1,13,OUT6*%
%TO.N,/LED_6_12V*%
X192150000Y-51440000D03*
%TO.P,U1,14,OUT5*%
%TO.N,/LED_5_12V*%
X189610000Y-51440000D03*
%TO.P,U1,15,OUT4*%
%TO.N,/LED_4_12V*%
X187070000Y-51440000D03*
%TO.P,U1,16,OUT3*%
%TO.N,/LED_3_12V*%
X184530000Y-51440000D03*
%TO.P,U1,17,OUT2*%
%TO.N,/LED_2_12V*%
X181990000Y-51440000D03*
%TO.P,U1,18,OUT1*%
%TO.N,/LED_1_12V*%
X179450000Y-51440000D03*
%TD*%
%TO.P,U3,1,Vin-*%
%TO.N,GND*%
X126300000Y-46700000D03*
%TO.P,U3,2,Vin-*%
X126300000Y-49240000D03*
%TO.P,U3,3,Vin+*%
%TO.N,+12V*%
X126300000Y-60232000D03*
%TO.P,U3,4,Vin+*%
X126300000Y-62772000D03*
%TO.P,U3,5,Vout+*%
%TO.N,+5V*%
X149668000Y-62772000D03*
%TO.P,U3,6,Vout+*%
X149668000Y-60232000D03*
%TO.P,U3,7,Vout-*%
%TO.N,GND*%
X149668000Y-49240000D03*
%TO.P,U3,8,Vout-*%
X149668000Y-46700000D03*
%TD*%
D13*
%TO.P,TP4,1,1*%
%TO.N,3V3_AUX*%
X174700000Y-56400000D03*
%TD*%
D14*
%TO.P,J5,1,Pin_1*%
%TO.N,/LED_4_12V*%
X194375000Y-45400000D03*
D15*
%TO.P,J5,2,Pin_2*%
%TO.N,+12V*%
X194375000Y-42900000D03*
%TD*%
D16*
%TO.P,J15,1,Pin_1*%
%TO.N,GND*%
X194800000Y-116800000D03*
D17*
%TO.P,J15,2,Pin_2*%
%TO.N,/BUTTON_6*%
X192300000Y-116800000D03*
%TD*%
D18*
%TO.P,J28,1,Pin_1*%
%TO.N,GND*%
X157600000Y-109050000D03*
D19*
%TO.P,J28,2,Pin_2*%
%TO.N,3V3_AUX*%
X157600000Y-111550000D03*
%TO.P,J28,3,Pin_3*%
%TO.N,/REMOTE_ACT_7_TX*%
X157600000Y-114050000D03*
%TO.P,J28,4,Pin_4*%
%TO.N,/REMOTE_ACT_7_RX*%
X157600000Y-116550000D03*
%TD*%
D20*
%TO.P,C16,1*%
%TO.N,3V3_AUX*%
X165800000Y-54396369D03*
D21*
%TO.P,C16,2*%
%TO.N,GND*%
X165800000Y-51896369D03*
%TD*%
%TO.P,C7,1*%
%TO.N,3V3_AUX*%
X109300000Y-114100000D03*
%TO.P,C7,2*%
%TO.N,GND*%
X109300000Y-119100000D03*
%TD*%
D14*
%TO.P,J3,1,Pin_1*%
%TO.N,/LED_2_12V*%
X177775000Y-45400000D03*
D15*
%TO.P,J3,2,Pin_2*%
%TO.N,+12V*%
X177775000Y-42900000D03*
%TD*%
D22*
%TO.P,J21,1,Pin_1*%
%TO.N,GND*%
X166400000Y-73700000D03*
D23*
%TO.P,J21,2,Pin_2*%
%TO.N,/Display_Power*%
X163900000Y-73700000D03*
%TO.P,J21,3,Pin_3*%
%TO.N,/SPI_SCK*%
X161400000Y-73700000D03*
%TO.P,J21,4,Pin_4*%
%TO.N,/SPI_MOSI*%
X158900000Y-73700000D03*
%TO.P,J21,5,Pin_5*%
%TO.N,/LCD_RST*%
X156400000Y-73700000D03*
%TO.P,J21,6,Pin_6*%
%TO.N,/LCD_DC*%
X153900000Y-73700000D03*
%TO.P,J21,7,Pin_7*%
%TO.N,/SPI_CS*%
X151400000Y-73700000D03*
%TD*%
D11*
%TO.P,D3,1*%
%TO.N,Net-(J30-Pin_2)*%
X106792500Y-59450000D03*
D12*
%TO.P,D3,2*%
X106792500Y-66950000D03*
%TO.P,D3,3*%
%TO.N,Net-(D3-Pad3)*%
X121042500Y-66950000D03*
%TO.P,D3,4*%
X121042500Y-59450000D03*
%TD*%
D16*
%TO.P,J10,1,Pin_1*%
%TO.N,GND*%
X177750000Y-105500000D03*
D17*
%TO.P,J10,2,Pin_2*%
%TO.N,/BUTTON_1*%
X175250000Y-105500000D03*
%TD*%
D18*
%TO.P,J20,1,Pin_1*%
%TO.N,GND*%
X139800000Y-69100000D03*
D19*
%TO.P,J20,2,Pin_2*%
%TO.N,/ANALOG_ACCEL_INPUT*%
X139800000Y-71600000D03*
%TO.P,J20,3,Pin_3*%
%TO.N,3V3_MCU*%
X139800000Y-74100000D03*
%TD*%
D16*
%TO.P,J16,1,Pin_1*%
%TO.N,GND*%
X205000000Y-105500000D03*
D17*
%TO.P,J16,2,Pin_2*%
%TO.N,/BUTTON_7*%
X202500000Y-105500000D03*
%TD*%
D14*
%TO.P,J2,1,Pin_1*%
%TO.N,/LED_1_12V*%
X169475000Y-45400000D03*
D15*
%TO.P,J2,2,Pin_2*%
%TO.N,+12V*%
X169475000Y-42900000D03*
%TD*%
D21*
%TO.P,C18,1*%
%TO.N,3V3_AUX*%
X160800000Y-56100000D03*
%TO.P,C18,2*%
%TO.N,GND*%
X160800000Y-51100000D03*
%TD*%
D18*
%TO.P,J24,1,Pin_1*%
%TO.N,GND*%
X122100000Y-109050000D03*
D19*
%TO.P,J24,2,Pin_2*%
%TO.N,3V3_AUX*%
X122100000Y-111550000D03*
%TO.P,J24,3,Pin_3*%
%TO.N,/REMOTE_ACT_3_TX*%
X122100000Y-114050000D03*
%TO.P,J24,4,Pin_4*%
%TO.N,/REMOTE_ACT_3_RX*%
X122100000Y-116550000D03*
%TD*%
D24*
%TO.P,U4,1,GND*%
%TO.N,GND*%
X155300000Y-53600000D03*
D25*
%TO.P,U4,2,VO*%
%TO.N,3V3_AUX*%
X155300000Y-56140000D03*
%TO.P,U4,3,VI*%
%TO.N,+5V*%
X155300000Y-58680000D03*
%TD*%
D21*
%TO.P,C2,1*%
%TO.N,3V3_MCU*%
X125500000Y-76000000D03*
%TO.P,C2,2*%
%TO.N,GND*%
X125500000Y-71000000D03*
%TD*%
%TO.P,C19,1*%
%TO.N,GND*%
X150725000Y-98100000D03*
%TO.P,C19,2*%
%TO.N,3V3_AUX*%
X150725000Y-103100000D03*
%TD*%
D26*
%TO.P,J8,1,Pin_1*%
%TO.N,/LED_7_12V*%
X205050000Y-61075000D03*
D17*
%TO.P,J8,2,Pin_2*%
%TO.N,+12V*%
X207550000Y-61075000D03*
%TD*%
D21*
%TO.P,C1,1*%
%TO.N,3V3_MCU*%
X121600000Y-76000000D03*
%TO.P,C1,2*%
%TO.N,GND*%
X121600000Y-71000000D03*
%TD*%
%TO.P,C6,1*%
%TO.N,3V3_AUX*%
X109300000Y-111800000D03*
%TO.P,C6,2*%
%TO.N,GND*%
X109300000Y-106800000D03*
%TD*%
D14*
%TO.P,J4,1,Pin_1*%
%TO.N,/LED_3_12V*%
X186075000Y-45375000D03*
D15*
%TO.P,J4,2,Pin_2*%
%TO.N,+12V*%
X186075000Y-42875000D03*
%TD*%
D21*
%TO.P,C4,1*%
%TO.N,3V3_AUX*%
X169800000Y-96500000D03*
%TO.P,C4,2*%
%TO.N,GND*%
X169800000Y-101500000D03*
%TD*%
D27*
%TO.P,C17,1*%
%TO.N,+5V*%
X155800000Y-65503631D03*
D21*
%TO.P,C17,2*%
%TO.N,GND*%
X155800000Y-68003631D03*
%TD*%
D13*
%TO.P,TP2,1,1*%
%TO.N,+12V*%
X113400000Y-43300000D03*
%TD*%
D28*
%TO.P,J30,1,Pin_1*%
%TO.N,GND*%
X102200000Y-62000000D03*
D15*
%TO.P,J30,2,Pin_2*%
%TO.N,Net-(J30-Pin_2)*%
X102200000Y-64500000D03*
%TD*%
D29*
%TO.P,J31,1,Pin_1*%
%TO.N,GND*%
X101675000Y-100575000D03*
D23*
%TO.P,J31,2,Pin_2*%
%TO.N,3V3_AUX*%
X104175000Y-100575000D03*
%TO.P,J31,3,Pin_3*%
%TO.N,/SPARE_2*%
X106675000Y-100575000D03*
%TO.P,J31,4,Pin_4*%
%TO.N,/SPARE_3*%
X109175000Y-100575000D03*
%TO.P,J31,5,Pin_5*%
%TO.N,/SPARE_6*%
X111675000Y-100575000D03*
%TO.P,J31,6,Pin_6*%
%TO.N,/SPARE_9*%
X114175000Y-100575000D03*
%TO.P,J31,7,Pin_7*%
%TO.N,/SPARE_26*%
X116675000Y-100575000D03*
%TO.P,J31,8,Pin_8*%
%TO.N,/SPARE_27*%
X119175000Y-100575000D03*
%TD*%
D29*
%TO.P,J32,1,Pin_1*%
%TO.N,GND*%
X126800000Y-100500000D03*
D23*
%TO.P,J32,2,Pin_2*%
%TO.N,3V3_AUX*%
X129300000Y-100500000D03*
%TO.P,J32,3,Pin_3*%
%TO.N,/SPARE_30*%
X131800000Y-100500000D03*
%TO.P,J32,4,Pin_4*%
%TO.N,/SPARE_33*%
X134300000Y-100500000D03*
%TO.P,J32,5,Pin_5*%
%TO.N,/SPARE_36*%
X136800000Y-100500000D03*
%TO.P,J32,6,Pin_6*%
%TO.N,/SPARE_37*%
X139300000Y-100500000D03*
%TO.P,J32,7,Pin_7*%
%TO.N,/SPARE_23*%
X141800000Y-100500000D03*
%TO.P,J32,8,Pin_8*%
%TO.N,unconnected-(J32-Pin_8-Pad8)*%
X144300000Y-100500000D03*
%TD*%
D18*
%TO.P,J19,1,Pin_1*%
%TO.N,GND*%
X131500000Y-69100000D03*
D19*
%TO.P,J19,2,Pin_2*%
%TO.N,/ANALOG_SPEED_INPUT*%
X131500000Y-71600000D03*
%TO.P,J19,3,Pin_3*%
%TO.N,3V3_MCU*%
X131500000Y-74100000D03*
%TD*%
D18*
%TO.P,J22,1,Pin_1*%
%TO.N,GND*%
X104400000Y-109050000D03*
D19*
%TO.P,J22,2,Pin_2*%
%TO.N,3V3_AUX*%
X104400000Y-111550000D03*
%TO.P,J22,3,Pin_3*%
%TO.N,/REMOTE_ACT_1_TX*%
X104400000Y-114050000D03*
%TO.P,J22,4,Pin_4*%
%TO.N,/REMOTE_ACT_1_RX*%
X104400000Y-116550000D03*
%TD*%
D30*
%TO.P,U2,1,GND*%
%TO.N,GND*%
X103205000Y-93800000D03*
D21*
%TO.P,U2,2,0_RX1_CRX2_CS1*%
%TO.N,/REMOTE_ACT_1_RX*%
X105745000Y-93800000D03*
%TO.P,U2,3,1_TX1_CTX2_MISO1*%
%TO.N,/REMOTE_ACT_1_TX*%
X108285000Y-93800000D03*
%TO.P,U2,4,2_OUT2*%
%TO.N,/SPARE_2*%
X110825000Y-93800000D03*
%TO.P,U2,5,3_LRCLK2*%
%TO.N,/SPARE_3*%
X113365000Y-93800000D03*
%TO.P,U2,6,4_BCLK2*%
%TO.N,/ENCODER_B*%
X115905000Y-93800000D03*
%TO.P,U2,7,5_IN2*%
%TO.N,/ENCODER_A*%
X118445000Y-93800000D03*
%TO.P,U2,8,6_OUT1D*%
%TO.N,/SPARE_6*%
X120985000Y-93800000D03*
%TO.P,U2,9,7_RX2_OUT1A*%
%TO.N,/REMOTE_ACT_2_RX*%
X123525000Y-93800000D03*
%TO.P,U2,10,8_TX2_IN1*%
%TO.N,/REMOTE_ACT_2_TX*%
X126065000Y-93800000D03*
%TO.P,U2,11,9_OUT1C*%
%TO.N,/SPARE_9*%
X128605000Y-93800000D03*
%TO.P,U2,12,10_CS_MQSR*%
%TO.N,/SPI_CS*%
X131145000Y-93800000D03*
%TO.P,U2,13,11_MOSI_CTX1*%
%TO.N,/SPI_MOSI*%
X133685000Y-93800000D03*
%TO.P,U2,14,12_MISO_MQSL*%
%TO.N,unconnected-(U2-12_MISO_MQSL-Pad14)*%
X136225000Y-93800000D03*
%TO.P,U2,15,3V3*%
%TO.N,3V3_MCU*%
X138765000Y-93800000D03*
%TO.P,U2,16,24_A10_TX6_SCL2*%
%TO.N,/REMOTE_ACT_6_TX*%
X141305000Y-93800000D03*
%TO.P,U2,17,25_A11_RX6_SDA2*%
%TO.N,/REMOTE_ACT_6_RX*%
X143845000Y-93800000D03*
%TO.P,U2,18,26_A12_MOSI1*%
%TO.N,/SPARE_26*%
X146385000Y-93800000D03*
%TO.P,U2,19,27_A13_SCK1*%
%TO.N,/SPARE_27*%
X148925000Y-93800000D03*
%TO.P,U2,20,28_RX7*%
%TO.N,/REMOTE_ACT_7_RX*%
X151465000Y-93800000D03*
%TO.P,U2,21,29_TX7*%
%TO.N,/REMOTE_ACT_7_TX*%
X154005000Y-93800000D03*
%TO.P,U2,22,30_CRX3*%
%TO.N,/SPARE_30*%
X156545000Y-93800000D03*
%TO.P,U2,23,31_CTX3*%
%TO.N,/I2C2_SDA*%
X159085000Y-93800000D03*
%TO.P,U2,24,32_OUT1B*%
%TO.N,/I2C2_SCL*%
X161625000Y-93800000D03*
%TO.P,U2,25,33_MCLK2*%
%TO.N,/SPARE_33*%
X161625000Y-78560000D03*
%TO.P,U2,26,34_RX8*%
%TO.N,/REMOTE_ACT_8_RX*%
X159085000Y-78560000D03*
%TO.P,U2,27,35_TX8*%
%TO.N,/REMOTE_ACT_8_TX*%
X156545000Y-78560000D03*
%TO.P,U2,28,36_CS*%
%TO.N,/SPARE_36*%
X154005000Y-78560000D03*
%TO.P,U2,29,37_CS*%
%TO.N,/SPARE_37*%
X151465000Y-78560000D03*
%TO.P,U2,30,38_CS1_IN1*%
%TO.N,/LCD_RST*%
X148925000Y-78560000D03*
%TO.P,U2,31,39_MISO1_OUT1A*%
%TO.N,/LCD_DC*%
X146385000Y-78560000D03*
%TO.P,U2,32,40_A16*%
%TO.N,/ANALOG_ACCEL_INPUT*%
X143845000Y-78560000D03*
%TO.P,U2,33,41_A17*%
%TO.N,/ANALOG_SPEED_INPUT*%
X141305000Y-78560000D03*
%TO.P,U2,34,GND*%
%TO.N,GND*%
X138765000Y-78560000D03*
%TO.P,U2,35,13_SCK_LED*%
%TO.N,/SPI_SCK*%
X136225000Y-78560000D03*
%TO.P,U2,36,14_A0_TX3_SPDIF_OUT*%
%TO.N,/REMOTE_ACT_3_TX*%
X133685000Y-78560000D03*
%TO.P,U2,37,15_A1_RX3_SPDIF_IN*%
%TO.N,/REMOTE_ACT_3_RX*%
X131145000Y-78560000D03*
%TO.P,U2,38,16_A2_RX4_SCL1*%
%TO.N,/REMOTE_ACT_4_RX*%
X128605000Y-78560000D03*
%TO.P,U2,39,17_A3_TX4_SDA1*%
%TO.N,/REMOTE_ACT_4_TX*%
X126065000Y-78560000D03*
%TO.P,U2,40,18_A4_SDA*%
%TO.N,/I2C_SDA*%
X123525000Y-78560000D03*
%TO.P,U2,41,19_A5_SCL*%
%TO.N,/I2C_SCL*%
X120985000Y-78560000D03*
%TO.P,U2,42,20_A6_TX5_LRCLK1*%
%TO.N,/REMOTE_ACT_5_TX*%
X118445000Y-78560000D03*
%TO.P,U2,43,21_A7_RX5_BCLK1*%
%TO.N,/REMOTE_ACT_5_RX*%
X115905000Y-78560000D03*
%TO.P,U2,44,22_A8_CTX1*%
%TO.N,/SX1509_INT*%
X113365000Y-78560000D03*
%TO.P,U2,45,23_A9_CRX1_MCLK1*%
%TO.N,/SPARE_23*%
X110825000Y-78560000D03*
%TO.P,U2,46,3V3*%
%TO.N,3V3_MCU*%
X108285000Y-78560000D03*
%TO.P,U2,47,GND*%
%TO.N,GND*%
X105745000Y-78560000D03*
%TO.P,U2,48,VIN*%
%TO.N,+5V*%
X103205000Y-78560000D03*
%TD*%
D16*
%TO.P,J13,1,Pin_1*%
%TO.N,GND*%
X186100000Y-116800000D03*
D17*
%TO.P,J13,2,Pin_2*%
%TO.N,/BUTTON_4*%
X183600000Y-116800000D03*
%TD*%
D21*
%TO.P,C11,1*%
%TO.N,3V3_AUX*%
X144800000Y-114100000D03*
%TO.P,C11,2*%
%TO.N,GND*%
X144800000Y-119100000D03*
%TD*%
D31*
%TO.P,D2,1,K*%
%TO.N,+12V*%
X111500000Y-51400000D03*
D32*
%TO.P,D2,2,A*%
%TO.N,GND*%
X98800000Y-51400000D03*
%TD*%
D21*
%TO.P,C14,1*%
%TO.N,+5V*%
X103800000Y-76000000D03*
%TO.P,C14,2*%
%TO.N,GND*%
X103800000Y-71000000D03*
%TD*%
D22*
%TO.P,J18,1,Pin_1*%
%TO.N,GND*%
X116600000Y-74200000D03*
D23*
%TO.P,J18,2,Pin_2*%
%TO.N,3V3_MCU*%
X114100000Y-74200000D03*
%TO.P,J18,3,Pin_3*%
%TO.N,/ENCODER_A*%
X111600000Y-74200000D03*
%TO.P,J18,4,Pin_4*%
%TO.N,/ENCODER_B*%
X109100000Y-74200000D03*
%TD*%
D29*
%TO.P,J1,1,Pin_1*%
%TO.N,GND*%
X155795000Y-100250000D03*
D23*
%TO.P,J1,2,Pin_2*%
%TO.N,3V3_AUX*%
X158295000Y-100250000D03*
%TO.P,J1,3,Pin_3*%
%TO.N,/I2C2_SDA*%
X160795000Y-100250000D03*
%TO.P,J1,4,Pin_4*%
%TO.N,/I2C2_SCL*%
X163295000Y-100250000D03*
%TD*%
D20*
%TO.P,C20,1*%
%TO.N,+12V*%
X117800000Y-50552651D03*
D21*
%TO.P,C20,2*%
%TO.N,GND*%
X117800000Y-47052651D03*
%TD*%
D33*
%TO.P,JP1,1,A*%
%TO.N,3V3_AUX*%
X165280000Y-63300000D03*
D34*
%TO.P,JP1,2,C*%
%TO.N,/Display_Power*%
X162740000Y-63300000D03*
%TO.P,JP1,3,B*%
%TO.N,+5V*%
X160200000Y-63300000D03*
%TD*%
D18*
%TO.P,J26,1,Pin_1*%
%TO.N,GND*%
X139900000Y-109050000D03*
D19*
%TO.P,J26,2,Pin_2*%
%TO.N,3V3_AUX*%
X139900000Y-111550000D03*
%TO.P,J26,3,Pin_3*%
%TO.N,/REMOTE_ACT_5_TX*%
X139900000Y-114050000D03*
%TO.P,J26,4,Pin_4*%
%TO.N,/REMOTE_ACT_5_RX*%
X139900000Y-116550000D03*
%TD*%
D18*
%TO.P,J29,1,Pin_1*%
%TO.N,GND*%
X168400000Y-109050000D03*
D19*
%TO.P,J29,2,Pin_2*%
%TO.N,3V3_AUX*%
X168400000Y-111550000D03*
%TO.P,J29,3,Pin_3*%
%TO.N,/REMOTE_ACT_8_TX*%
X168400000Y-114050000D03*
%TO.P,J29,4,Pin_4*%
%TO.N,/REMOTE_ACT_8_RX*%
X168400000Y-116550000D03*
%TD*%
D18*
%TO.P,J25,1,Pin_1*%
%TO.N,GND*%
X132900000Y-109050000D03*
D19*
%TO.P,J25,2,Pin_2*%
%TO.N,3V3_AUX*%
X132900000Y-111550000D03*
%TO.P,J25,3,Pin_3*%
%TO.N,/REMOTE_ACT_4_TX*%
X132900000Y-114050000D03*
%TO.P,J25,4,Pin_4*%
%TO.N,/REMOTE_ACT_4_RX*%
X132900000Y-116550000D03*
%TD*%
D21*
%TO.P,C12,1*%
%TO.N,3V3_AUX*%
X162500000Y-111800000D03*
%TO.P,C12,2*%
%TO.N,GND*%
X162500000Y-106800000D03*
%TD*%
D18*
%TO.P,J23,1,Pin_1*%
%TO.N,GND*%
X115200000Y-109050000D03*
D19*
%TO.P,J23,2,Pin_2*%
%TO.N,3V3_AUX*%
X115200000Y-111550000D03*
%TO.P,J23,3,Pin_3*%
%TO.N,/REMOTE_ACT_2_TX*%
X115200000Y-114050000D03*
%TO.P,J23,4,Pin_4*%
%TO.N,/REMOTE_ACT_2_RX*%
X115200000Y-116550000D03*
%TD*%
D21*
%TO.P,C8,1*%
%TO.N,3V3_AUX*%
X127000000Y-111800000D03*
%TO.P,C8,2*%
%TO.N,GND*%
X127000000Y-106800000D03*
%TD*%
%TO.P,C13,1*%
%TO.N,3V3_AUX*%
X162500000Y-114100000D03*
%TO.P,C13,2*%
%TO.N,GND*%
X162500000Y-119100000D03*
%TD*%
D16*
%TO.P,J11,1,Pin_1*%
%TO.N,GND*%
X177400000Y-116800000D03*
D17*
%TO.P,J11,2,Pin_2*%
%TO.N,/BUTTON_2*%
X174900000Y-116800000D03*
%TD*%
D13*
%TO.P,TP1,1,1*%
%TO.N,GND*%
X107700000Y-43200000D03*
%TD*%
%TO.P,TP3,1,1*%
%TO.N,+5V*%
X148100000Y-67800000D03*
%TD*%
D16*
%TO.P,J12,1,Pin_1*%
%TO.N,GND*%
X186900000Y-105500000D03*
D17*
%TO.P,J12,2,Pin_2*%
%TO.N,/BUTTON_3*%
X184400000Y-105500000D03*
%TD*%
D26*
%TO.P,J7,1,Pin_1*%
%TO.N,/LED_6_12V*%
X205100000Y-69300000D03*
D17*
%TO.P,J7,2,Pin_2*%
%TO.N,+12V*%
X207600000Y-69300000D03*
%TD*%
D35*
%TO.P,U5,1,~{INT}*%
%TO.N,/SX1509_INT*%
X174800000Y-93570000D03*
%TO.P,U5,2,~{RST}*%
%TO.N,unconnected-(U5-~{RST}-Pad2)*%
X174800000Y-91030000D03*
%TO.P,U5,3,GND*%
%TO.N,GND*%
X174800000Y-88490000D03*
%TO.P,U5,4,3V3*%
%TO.N,3V3_AUX*%
X174800000Y-85950000D03*
%TO.P,U5,5,~{SDA}*%
%TO.N,/I2C_SDA*%
X174800000Y-83410000D03*
%TO.P,U5,6,~{SCL}*%
%TO.N,/I2C_SCL*%
X174800000Y-80870000D03*
%TO.P,U5,7,OSC*%
%TO.N,unconnected-(U5-OSC-Pad7)*%
X207820000Y-93570000D03*
%TO.P,U5,8,~{RST}*%
%TO.N,unconnected-(U5-~{RST}-Pad8)*%
X207820000Y-91030000D03*
%TO.P,U5,9,GND*%
%TO.N,GND*%
X207820000Y-88490000D03*
%TO.P,U5,10,3V3*%
%TO.N,unconnected-(U5-3V3-Pad10)*%
X207820000Y-85950000D03*
%TO.P,U5,11,~{SDA}*%
%TO.N,unconnected-(U5-~{SDA}-Pad11)*%
X207820000Y-83410000D03*
%TO.P,U5,12,~{SCL}*%
%TO.N,unconnected-(U5-~{SCL}-Pad12)*%
X207820000Y-80870000D03*
%TO.P,U5,13,GND*%
%TO.N,GND*%
X179880000Y-94840000D03*
%TO.P,U5,14,P0*%
%TO.N,/BUTTON_1*%
X182420000Y-94840000D03*
%TO.P,U5,15,P1*%
%TO.N,/BUTTON_2*%
X184960000Y-94840000D03*
%TO.P,U5,16,P2*%
%TO.N,/BUTTON_3*%
X187500000Y-94840000D03*
%TO.P,U5,17,P3*%
%TO.N,/BUTTON_4*%
X190040000Y-94840000D03*
%TO.P,U5,18,VC1*%
%TO.N,unconnected-(U5-VC1-Pad18)*%
X192580000Y-94840000D03*
%TO.P,U5,19,P4*%
%TO.N,/BUTTON_5*%
X195120000Y-94840000D03*
%TO.P,U5,20,P5*%
%TO.N,/BUTTON_6*%
X197660000Y-94840000D03*
%TO.P,U5,21,P6*%
%TO.N,/BUTTON_7*%
X200200000Y-94840000D03*
%TO.P,U5,22,P7*%
%TO.N,/BUTTON_8*%
X202740000Y-94840000D03*
%TO.P,U5,23,P8*%
%TO.N,/LED_8*%
X202740000Y-79600000D03*
%TO.P,U5,24,P9*%
%TO.N,/LED_7*%
X200200000Y-79600000D03*
%TO.P,U5,25,P10*%
%TO.N,/LED_6*%
X197660000Y-79600000D03*
%TO.P,U5,26,P11*%
%TO.N,/LED_5*%
X195120000Y-79600000D03*
%TO.P,U5,27,VC2*%
%TO.N,unconnected-(U5-VC2-Pad27)*%
X192580000Y-79600000D03*
%TO.P,U5,28,P12*%
%TO.N,/LED_4*%
X190040000Y-79600000D03*
%TO.P,U5,29,P13*%
%TO.N,/LED_3*%
X187500000Y-79600000D03*
%TO.P,U5,30,P14*%
%TO.N,/LED_2*%
X184960000Y-79600000D03*
%TO.P,U5,31,P15*%
%TO.N,/LED_1*%
X182420000Y-79600000D03*
%TO.P,U5,32,GND*%
%TO.N,GND*%
X179880000Y-79600000D03*
%TO.P,U5,33,GND*%
X179880000Y-77060000D03*
%TO.P,U5,34,P15_COM*%
X182420000Y-77060000D03*
%TO.P,U5,35,P14_COM*%
X184960000Y-77060000D03*
%TO.P,U5,36,P13_COM*%
X187500000Y-77060000D03*
%TO.P,U5,37,P12_COM*%
X190040000Y-77060000D03*
%TO.P,U5,38,VC2_COM*%
X192580000Y-77060000D03*
%TO.P,U5,39,P11_COM*%
X195120000Y-77060000D03*
%TO.P,U5,40,P10_COM*%
X197660000Y-77060000D03*
%TO.P,U5,41,P9_COM*%
X200200000Y-77060000D03*
%TO.P,U5,42,P8_COM*%
X202740000Y-77060000D03*
%TO.P,U5,43,P7_COM*%
X202740000Y-97380000D03*
%TO.P,U5,44,P6_COM*%
X200200000Y-97380000D03*
%TO.P,U5,45,P5_COM*%
X197660000Y-97380000D03*
%TO.P,U5,46,P4_COM*%
X195120000Y-97380000D03*
%TO.P,U5,47,VC1_COM*%
X192580000Y-97380000D03*
%TO.P,U5,48,P3_COM*%
X190040000Y-97380000D03*
%TO.P,U5,49,P2_COM*%
X187500000Y-97380000D03*
%TO.P,U5,50,P1_COM*%
X184960000Y-97380000D03*
%TO.P,U5,51,P0_COM*%
X182420000Y-97380000D03*
%TO.P,U5,52,GND*%
X179880000Y-97380000D03*
%TD*%
D21*
%TO.P,C9,1*%
%TO.N,3V3_AUX*%
X127000000Y-114100000D03*
%TO.P,C9,2*%
%TO.N,GND*%
X127000000Y-119100000D03*
%TD*%
D16*
%TO.P,J17,1,Pin_1*%
%TO.N,GND*%
X203500000Y-116800000D03*
D17*
%TO.P,J17,2,Pin_2*%
%TO.N,/BUTTON_8*%
X201000000Y-116800000D03*
%TD*%
D21*
%TO.P,C10,1*%
%TO.N,3V3_AUX*%
X144800000Y-111800000D03*
%TO.P,C10,2*%
%TO.N,GND*%
X144800000Y-106800000D03*
%TD*%
D16*
%TO.P,J14,1,Pin_1*%
%TO.N,GND*%
X196000000Y-105500000D03*
D17*
%TO.P,J14,2,Pin_2*%
%TO.N,/BUTTON_5*%
X193500000Y-105500000D03*
%TD*%
D26*
%TO.P,J9,1,Pin_1*%
%TO.N,/LED_8_12V*%
X205000000Y-52800000D03*
D17*
%TO.P,J9,2,Pin_2*%
%TO.N,+12V*%
X207500000Y-52800000D03*
%TD*%
D14*
%TO.P,J6,1,Pin_1*%
%TO.N,/LED_5_12V*%
X202475000Y-45500000D03*
D15*
%TO.P,J6,2,Pin_2*%
%TO.N,+12V*%
X202475000Y-43000000D03*
%TD*%
D18*
%TO.P,J27,1,Pin_1*%
%TO.N,GND*%
X150700000Y-109050000D03*
D19*
%TO.P,J27,2,Pin_2*%
%TO.N,3V3_AUX*%
X150700000Y-111550000D03*
%TO.P,J27,3,Pin_3*%
%TO.N,/REMOTE_ACT_6_TX*%
X150700000Y-114050000D03*
%TO.P,J27,4,Pin_4*%
%TO.N,/REMOTE_ACT_6_RX*%
X150700000Y-116550000D03*
%TD*%
D21*
%TO.P,C5,1*%
%TO.N,/Display_Power*%
X164400000Y-58400000D03*
%TO.P,C5,2*%
%TO.N,GND*%
X169400000Y-58400000D03*
%TD*%
%TO.P,C3,1*%
%TO.N,3V3_MCU*%
X145900000Y-76100000D03*
%TO.P,C3,2*%
%TO.N,GND*%
X145900000Y-71100000D03*
%TD*%
D12*
%TO.P,F1,1*%
%TO.N,Net-(D3-Pad3)*%
X115560000Y-55500000D03*
%TO.P,F1,2*%
%TO.N,+12V*%
X120640000Y-55510000D03*
%TD*%
D21*
%TO.P,R2,1*%
%TO.N,/I2C2_SDA*%
X169700000Y-81620000D03*
%TO.P,R2,2*%
%TO.N,3V3_AUX*%
X169700000Y-91780000D03*
%TD*%
%TO.P,C15,1*%
%TO.N,3V3_MCU*%
X110500000Y-82700000D03*
%TO.P,C15,2*%
%TO.N,GND*%
X110500000Y-87700000D03*
%TD*%
%TO.P,R3,1*%
%TO.N,3V3_MCU*%
X116000000Y-80940000D03*
%TO.P,R3,2*%
%TO.N,/ENCODER_B*%
X116000000Y-91100000D03*
%TD*%
%TO.P,R4,1*%
%TO.N,3V3_MCU*%
X119165000Y-80940000D03*
%TO.P,R4,2*%
%TO.N,/ENCODER_A*%
X119165000Y-91100000D03*
%TD*%
%TO.P,R1,1*%
%TO.N,3V3_AUX*%
X166600000Y-91780000D03*
%TO.P,R1,2*%
%TO.N,/I2C2_SCL*%
X166600000Y-81620000D03*
%TD*%
D36*
%TO.N,/SPARE_26*%
X145200000Y-91900000D03*
X124200000Y-102600000D03*
%TO.N,/SPARE_27*%
X132200000Y-91300000D03*
X133400000Y-90000000D03*
X125300000Y-90100000D03*
%TO.N,/SPARE_37*%
X145200000Y-86200000D03*
X142400000Y-96100000D03*
%TO.N,/SPARE_30*%
X142900000Y-97300000D03*
X138200000Y-102200000D03*
%TO.N,/SPARE_9*%
X122600000Y-103200000D03*
%TO.N,/SPARE_36*%
X133650707Y-92249293D03*
%TO.N,/SPI_SCK*%
X157600000Y-80600000D03*
%TO.N,/REMOTE_ACT_4_TX*%
X125100000Y-83300000D03*
%TO.N,/REMOTE_ACT_4_RX*%
X125900000Y-84500000D03*
%TO.N,/REMOTE_ACT_5_RX*%
X124700000Y-91800000D03*
X130500000Y-98400000D03*
%TO.N,/REMOTE_ACT_5_TX*%
X126200000Y-91700000D03*
X132100000Y-97700000D03*
%TO.N,/SPARE_23*%
X122200000Y-92500000D03*
%TO.N,/REMOTE_ACT_8_RX*%
X156200000Y-86100000D03*
%TO.N,/REMOTE_ACT_8_TX*%
X154000000Y-84900000D03*
X165000000Y-86200000D03*
%TD*%
D37*
%TO.N,/SPARE_26*%
X145200000Y-92615000D02*
X146385000Y-93800000D01*
X145200000Y-91900000D02*
X145200000Y-92615000D01*
%TO.N,/SPARE_27*%
X133500000Y-89800000D02*
X133400000Y-89900000D01*
X133400000Y-89900000D02*
X133400000Y-90000000D01*
X137350000Y-91100000D02*
X136950000Y-91500000D01*
X136950000Y-91500000D02*
X135200000Y-91500000D01*
X146225000Y-91100000D02*
X137350000Y-91100000D01*
X135200000Y-91500000D02*
X133500000Y-89800000D01*
X148925000Y-93800000D02*
X146225000Y-91100000D01*
%TO.N,/SPARE_26*%
X118699000Y-102599000D02*
X116675000Y-100575000D01*
X124200000Y-102600000D02*
X123500000Y-102600000D01*
X123500000Y-102600000D02*
X123499000Y-102599000D01*
X123499000Y-102599000D02*
X118699000Y-102599000D01*
%TO.N,/REMOTE_ACT_5_TX*%
X127166000Y-92666000D02*
X126200000Y-91700000D01*
X130100000Y-95700000D02*
X128609950Y-95700000D01*
X127166000Y-94256050D02*
X127166000Y-92666000D01*
X132100000Y-97700000D02*
X130100000Y-95700000D01*
X128609950Y-95700000D02*
X127166000Y-94256050D01*
%TO.N,/REMOTE_ACT_5_RX*%
X124700000Y-93992050D02*
X124700000Y-91800000D01*
X127507950Y-96800000D02*
X124700000Y-93992050D01*
X130500000Y-98400000D02*
X128900000Y-96800000D01*
X128900000Y-96800000D02*
X127507950Y-96800000D01*
%TO.N,/SPARE_9*%
X116800000Y-103200000D02*
X114175000Y-100575000D01*
X122600000Y-103200000D02*
X116800000Y-103200000D01*
%TO.N,/SPARE_27*%
X131000000Y-90100000D02*
X132200000Y-91300000D01*
X125300000Y-90100000D02*
X131000000Y-90100000D01*
%TO.N,/SPARE_37*%
X148500000Y-96100000D02*
X142400000Y-96100000D01*
X150364000Y-91364000D02*
X150364000Y-94236000D01*
X150364000Y-94236000D02*
X148500000Y-96100000D01*
X145200000Y-86200000D02*
X150364000Y-91364000D01*
%TO.N,/SPARE_30*%
X153346000Y-96999000D02*
X156545000Y-93800000D01*
X143201000Y-96999000D02*
X153346000Y-96999000D01*
X142900000Y-97300000D02*
X143201000Y-96999000D01*
X138200000Y-102200000D02*
X138300000Y-102200000D01*
X133500000Y-102200000D02*
X138200000Y-102200000D01*
X131800000Y-100500000D02*
X133500000Y-102200000D01*
%TO.N,/SPARE_36*%
X133691343Y-92249293D02*
X133650707Y-92249293D01*
X135124000Y-98824000D02*
X135124000Y-93681950D01*
X136800000Y-100500000D02*
X135124000Y-98824000D01*
X135124000Y-93681950D02*
X133691343Y-92249293D01*
%TO.N,/SPI_SCK*%
X138265000Y-80600000D02*
X157600000Y-80600000D01*
X136225000Y-78560000D02*
X138265000Y-80600000D01*
%TO.N,/REMOTE_ACT_4_TX*%
X132900000Y-113925000D02*
X132900000Y-114050000D01*
X142951000Y-103874000D02*
X132900000Y-113925000D01*
X142951000Y-99898240D02*
X142951000Y-103874000D01*
X137664000Y-94611240D02*
X142951000Y-99898240D01*
X137664000Y-93681950D02*
X137664000Y-94611240D01*
X136681050Y-92699000D02*
X137664000Y-93681950D01*
X134948943Y-92699000D02*
X136681050Y-92699000D01*
X125549943Y-83300000D02*
X134948943Y-92699000D01*
X125100000Y-83300000D02*
X125549943Y-83300000D01*
%TO.N,/SX1509_INT*%
X114466000Y-79661000D02*
X113365000Y-78560000D01*
X126897900Y-82500000D02*
X119167950Y-82500000D01*
X128208900Y-83811000D02*
X126897900Y-82500000D01*
X116328950Y-79661000D02*
X114466000Y-79661000D01*
X174800000Y-93570000D02*
X165041000Y-83811000D01*
X165041000Y-83811000D02*
X128208900Y-83811000D01*
X119167950Y-82500000D02*
X116328950Y-79661000D01*
%TO.N,/REMOTE_ACT_4_RX*%
X119621050Y-92201000D02*
X125900000Y-85922050D01*
X119621050Y-97021050D02*
X119621050Y-92201000D01*
X128101000Y-111751000D02*
X128101000Y-105501000D01*
X125900000Y-85922050D02*
X125900000Y-84500000D01*
X128101000Y-105501000D02*
X119621050Y-97021050D01*
X132900000Y-116550000D02*
X128101000Y-111751000D01*
%TO.N,/SPARE_23*%
X139400000Y-102900000D02*
X141800000Y-100500000D01*
X122200000Y-99000000D02*
X126100000Y-102900000D01*
X122200000Y-92500000D02*
X122200000Y-99000000D01*
X126100000Y-102900000D02*
X139400000Y-102900000D01*
%TO.N,/REMOTE_ACT_8_RX*%
X165499000Y-95399000D02*
X156200000Y-86100000D01*
X165499000Y-113649000D02*
X165499000Y-95399000D01*
X168400000Y-116550000D02*
X165499000Y-113649000D01*
%TO.N,/REMOTE_ACT_8_TX*%
X163700000Y-84900000D02*
X154000000Y-84900000D01*
X165000000Y-86200000D02*
X163700000Y-84900000D01*
%TO.N,/I2C_SDA*%
X128375000Y-83410000D02*
X123525000Y-78560000D01*
X174800000Y-83410000D02*
X128375000Y-83410000D01*
%TO.N,/I2C_SCL*%
X122086000Y-77459000D02*
X120985000Y-78560000D01*
X171389000Y-77459000D02*
X122086000Y-77459000D01*
X174800000Y-80870000D02*
X171389000Y-77459000D01*
%TD*%
M02*
